<svg width="207" height="207" viewBox="0 0 207 207" fill="none" xmlns="http://www.w3.org/2000/svg">
<mask id="mask0_2378_1264" style="mask-type:luminance" maskUnits="userSpaceOnUse" x="0" y="0" width="207" height="207">
<path d="M207 0H0V207H207V0Z" fill="white"/>
</mask>
<g mask="url(#mask0_2378_1264)">
<path d="M103.155 207.429C77.4451 207.397 52.6635 197.818 33.6171 180.548C14.5708 163.278 2.61766 139.55 0.0762848 113.966C-2.46509 88.3823 4.58652 62.7663 19.8632 42.0873C35.1399 21.4083 57.5527 7.14042 82.7539 2.05139C107.955 -3.03764 134.148 1.41494 156.252 14.5454C178.356 27.6759 194.796 48.5482 202.381 73.1136C209.967 97.679 208.158 124.186 197.306 147.493C186.453 170.801 167.331 189.246 143.648 199.252C130.835 204.666 117.064 207.446 103.155 207.429ZM103.155 4.44021C83.5834 4.4404 64.4513 10.2442 48.1781 21.1177C31.905 31.9912 19.2216 47.446 11.7318 65.5278C4.24198 83.6096 2.28221 103.506 6.10028 122.702C9.91835 141.897 19.3428 159.53 33.1818 173.369C47.0208 187.209 64.6529 196.634 83.8484 200.452C103.044 204.271 122.941 202.312 141.023 194.823C159.105 187.333 174.56 174.65 185.434 158.378C196.308 142.105 202.112 122.973 202.113 103.401C202.08 77.1657 191.644 52.0141 173.093 33.4625C154.542 14.9109 129.391 4.47381 103.155 4.44021Z" fill="#231F20"/>
<path d="M103.156 196.012C81.7291 196.013 60.9651 188.584 44.4017 174.991C27.8383 161.398 16.5004 142.483 12.3199 121.468C8.13928 100.453 11.3747 78.6387 21.4749 59.7418C31.575 40.8449 47.9149 26.0347 67.7105 17.8347C87.5061 9.63464 109.533 8.55216 130.037 14.7717C150.541 20.9912 168.254 34.1278 180.159 51.9433C192.063 69.7588 197.422 91.1509 195.322 112.475C193.222 133.798 183.794 153.734 168.643 168.885C160.043 177.485 149.833 184.307 138.596 188.961C127.359 193.614 115.316 196.01 103.154 196.009M103.154 15.8562C82.9013 15.8562 63.2753 22.8786 47.6199 35.7267C31.9644 48.5748 21.2482 66.4537 17.2971 86.3172C13.346 106.181 16.4045 126.799 25.9515 144.661C35.4985 162.522 50.9432 176.52 69.6542 184.271C88.3651 192.021 109.184 193.044 128.565 187.165C147.946 181.286 164.688 168.869 175.94 152.03C187.192 135.19 192.257 114.97 190.272 94.8154C188.287 74.6603 179.375 55.817 165.054 41.4962C156.925 33.3673 147.275 26.9191 136.654 22.5198C126.033 18.1205 114.65 15.8562 103.154 15.8562Z" fill="#231F20"/>
<path d="M148.334 81.6329H57.9761C55.3212 81.6279 52.7767 80.5704 50.9003 78.6923C49.0239 76.8142 47.9687 74.2688 47.9661 71.6139V53.8139C47.9687 51.158 49.0247 48.6117 50.9024 46.7334C52.7801 44.8551 55.3262 43.7984 57.9821 43.7949H148.331C150.986 43.8 153.53 44.8574 155.407 46.7355C157.283 48.6136 158.338 51.1591 158.341 53.8139V71.6139C158.338 74.2688 157.283 76.8142 155.407 78.6923C153.53 80.5704 150.986 81.6279 148.331 81.6329M57.9761 48.8729C56.6668 48.8772 55.4125 49.3998 54.4876 50.3266C53.5628 51.2533 53.0426 52.5086 53.0411 53.8179V71.6179C53.0419 72.9287 53.5627 74.1855 54.4892 75.1126C55.4158 76.0397 56.6723 76.5613 57.9831 76.5629H148.332C149.642 76.5595 150.896 76.0371 151.821 75.1102C152.746 74.1833 153.266 72.9274 153.267 71.6179V53.8179C153.265 52.5074 152.744 51.251 151.818 50.3241C150.892 49.3972 149.636 48.8753 148.325 48.8729H57.9761Z" fill="#231F20"/>
<path d="M96.3651 103.784C94.5971 103.784 92.8689 103.26 91.3987 102.278C89.9286 101.296 88.7826 99.9004 88.1056 98.2672C87.4286 96.6341 87.251 94.8368 87.5951 93.1027C87.9393 91.3686 88.7899 89.7755 90.0393 88.5246C91.2887 87.2738 92.8809 86.4215 94.6146 86.0754C96.3484 85.7293 98.1458 85.9049 99.7797 86.5801C101.414 87.2553 102.811 88.3997 103.794 89.8687C104.778 91.3378 105.304 93.0654 105.306 94.8333C105.307 96.0083 105.077 97.1721 104.628 98.258C104.18 99.3439 103.521 100.331 102.691 101.162C101.86 101.993 100.874 102.653 99.7889 103.103C98.7035 103.553 97.5401 103.784 96.3651 103.784ZM96.3651 90.9843C95.6005 90.9843 94.853 91.2111 94.2172 91.6359C93.5815 92.0607 93.0859 92.6645 92.7933 93.3709C92.5007 94.0773 92.4242 94.8546 92.5734 95.6046C92.7225 96.3545 93.0907 97.0433 93.6314 97.584C94.172 98.1247 94.8609 98.4929 95.6108 98.642C96.3608 98.7912 97.1381 98.7147 97.8445 98.422C98.5509 98.1294 99.1547 97.634 99.5795 96.9982C100.004 96.3624 100.231 95.615 100.231 94.8503V94.8373C100.227 93.8144 99.8178 92.8348 99.0933 92.1126C98.3689 91.3904 97.388 90.9854 96.3651 90.9843Z" fill="#231F20"/>
<path d="M117.942 103.784C116.174 103.784 114.446 103.26 112.976 102.278C111.506 101.296 110.36 99.9004 109.683 98.2672C109.006 96.6341 108.828 94.8368 109.172 93.1027C109.516 91.3686 110.367 89.7755 111.616 88.5246C112.866 87.2738 114.458 86.4215 116.192 86.0754C117.925 85.7293 119.723 85.9049 121.357 86.5801C122.991 87.2553 124.388 88.3997 125.371 89.8687C126.355 91.3378 126.881 93.0654 126.883 94.8333C126.884 96.0083 126.654 97.1721 126.205 98.258C125.757 99.3439 125.098 100.331 124.268 101.162C123.437 101.993 122.451 102.653 121.366 103.103C120.28 103.553 119.117 103.784 117.942 103.784ZM117.942 90.9843C117.177 90.9843 116.43 91.2111 115.794 91.6359C115.158 92.0607 114.663 92.6645 114.37 93.3709C114.078 94.0773 114.001 94.8546 114.15 95.6046C114.299 96.3545 114.668 97.0433 115.208 97.584C115.749 98.1247 116.438 98.4929 117.188 98.642C117.938 98.7912 118.715 98.7147 119.421 98.422C120.128 98.1294 120.732 97.634 121.156 96.9982C121.581 96.3624 121.808 95.615 121.808 94.8503V94.8373C121.804 93.8144 121.395 92.8348 120.67 92.1126C119.946 91.3904 118.965 90.9854 117.942 90.9843Z" fill="#231F20"/>
<path d="M139.526 103.784C137.758 103.785 136.029 103.261 134.559 102.28C133.088 101.298 131.942 99.9024 131.264 98.2693C130.587 96.6362 130.409 94.8389 130.753 93.1045C131.097 91.3702 131.947 89.7768 133.196 88.5257C134.445 87.2746 136.038 86.4219 137.772 86.0756C139.505 85.7292 141.303 85.9047 142.937 86.5798C144.571 87.2549 145.968 88.3993 146.952 89.8684C147.936 91.3375 148.462 93.0653 148.464 94.8333C148.465 96.0081 148.235 97.1716 147.787 98.2573C147.338 99.343 146.68 100.33 145.85 101.161C145.02 101.992 144.034 102.652 142.949 103.102C141.864 103.552 140.701 103.784 139.526 103.784ZM139.526 90.9843C138.761 90.9837 138.014 91.2099 137.378 91.6342C136.742 92.0585 136.246 92.6619 135.952 93.3681C135.659 94.0743 135.582 94.8516 135.731 95.6016C135.879 96.3517 136.247 97.0408 136.787 97.5819C137.327 98.123 138.016 98.4917 138.766 98.6415C139.516 98.7912 140.293 98.7153 141 98.4232C141.706 98.1312 142.311 97.6361 142.736 97.0007C143.161 96.3652 143.388 95.618 143.389 94.8534V94.8373C143.386 93.8143 142.978 92.8342 142.254 92.1114C141.53 91.3886 140.549 90.9819 139.526 90.9803" fill="#231F20"/>
<path d="M58 164.697C55.1476 164.692 52.4136 163.556 50.3966 161.539C48.3796 159.522 47.2439 156.788 47.238 153.935V133.529C47.2654 130.693 48.4112 127.982 50.4264 125.987C52.4416 123.991 55.1632 122.871 57.9995 122.871C60.8358 122.871 63.5574 123.991 65.5726 125.987C67.5879 127.982 68.7337 130.693 68.761 133.529V153.948C68.7518 156.799 67.6146 159.529 65.5979 161.543C63.5813 163.558 60.8493 164.692 57.999 164.697M57.999 127.829C56.4903 127.835 55.0452 128.438 53.9795 129.506C52.9139 130.574 52.3144 132.021 52.312 133.529V153.948C52.312 155.457 52.9112 156.903 53.9777 157.97C55.0442 159.036 56.4907 159.635 57.999 159.635C59.5073 159.635 60.9538 159.036 62.0203 157.97C63.0869 156.903 63.686 155.457 63.686 153.948V133.529C63.686 132.019 63.0876 130.57 62.0217 129.5C60.9558 128.43 59.5093 127.826 57.999 127.82V127.829Z" fill="#231F20"/>
<path d="M88.1031 164.697C85.2505 164.692 82.5161 163.557 80.4987 161.54C78.4813 159.523 77.3452 156.789 77.3391 153.936V133.529C77.3935 130.711 78.5513 128.026 80.5638 126.052C82.5764 124.078 85.283 122.972 88.1021 122.972C90.9212 122.972 93.6279 124.078 95.6404 126.052C97.6529 128.026 98.8108 130.711 98.8651 133.529V153.948C98.8559 156.799 97.7182 159.53 95.7009 161.544C93.6837 163.559 90.9509 164.692 88.1001 164.697M88.1001 127.829C86.5914 127.835 85.1463 128.438 84.0806 129.506C83.015 130.574 82.4155 132.02 82.4131 133.529V153.948C82.4472 155.434 83.0616 156.848 84.1246 157.887C85.1877 158.926 86.6152 159.508 88.1016 159.508C89.5881 159.508 91.0155 158.926 92.0786 157.887C93.1417 156.848 93.756 155.434 93.7901 153.948V133.529C93.7901 132.018 93.1912 130.569 92.1247 129.499C91.0582 128.429 89.6109 127.825 88.1001 127.82V127.829Z" fill="#231F20"/>
<path d="M118.209 164.697C115.356 164.692 112.621 163.557 110.604 161.54C108.586 159.523 107.45 156.788 107.444 153.935V133.529C107.498 130.711 108.656 128.026 110.669 126.052C112.681 124.078 115.388 122.972 118.207 122.972C121.026 122.972 123.733 124.078 125.745 126.052C127.758 128.026 128.916 130.711 128.97 133.529V153.948C128.961 156.798 127.824 159.529 125.807 161.543C123.79 163.557 121.058 164.691 118.208 164.697M118.208 127.829C116.699 127.834 115.253 128.437 114.187 129.505C113.12 130.573 112.52 132.02 112.518 133.529V153.948C112.552 155.434 113.167 156.848 114.23 157.887C115.293 158.926 116.72 159.508 118.207 159.508C119.693 159.508 121.12 158.926 122.184 157.887C123.247 156.848 123.861 155.434 123.895 153.948V133.529C123.895 132.019 123.297 130.57 122.231 129.5C121.165 128.43 119.718 127.826 118.208 127.82V127.829Z" fill="#231F20"/>
<path d="M148.311 164.697C145.459 164.692 142.725 163.556 140.708 161.539C138.691 159.522 137.555 156.788 137.549 153.935V133.529C137.576 130.693 138.722 127.982 140.737 125.987C142.753 123.991 145.474 122.871 148.311 122.871C151.147 122.871 153.868 123.991 155.884 125.987C157.899 127.982 159.045 130.693 159.072 133.529V153.948C159.063 156.799 157.926 159.529 155.909 161.543C153.892 163.558 151.16 164.692 148.31 164.697M148.31 127.829C146.801 127.835 145.356 128.438 144.291 129.506C143.225 130.574 142.625 132.021 142.623 133.529V153.948C142.623 155.457 143.222 156.903 144.289 157.97C145.355 159.036 146.802 159.635 148.31 159.635C149.818 159.635 151.265 159.036 152.331 157.97C153.398 156.903 153.997 155.457 153.997 153.948V133.529C153.997 132.019 153.399 130.57 152.333 129.5C151.267 128.43 149.82 127.826 148.31 127.82V127.829Z" fill="#231F20"/>
</g>
</svg>
