<svg width="136" height="152" viewBox="0 0 136 152" fill="none" xmlns="http://www.w3.org/2000/svg">
<mask id="mask0_2378_1292" style="mask-type:luminance" maskUnits="userSpaceOnUse" x="0" y="0" width="136" height="152">
<path d="M135.951 0H0.0498047V151.202H135.951V0Z" fill="white"/>
</mask>
<g mask="url(#mask0_2378_1292)">
<path d="M131.811 137.473H4.1898C3.00792 137.473 2.0498 138.431 2.0498 139.613V147.062C2.0498 148.244 3.00792 149.202 4.1898 149.202H131.811C132.993 149.202 133.951 148.244 133.951 147.062V139.613C133.951 138.431 132.993 137.473 131.811 137.473Z" stroke="white" stroke-width="4" stroke-linecap="round" stroke-linejoin="round"/>
<path d="M68.0568 90.7061L64.3418 102.131H72.8278L68.5868 112.45" stroke="white" stroke-width="4" stroke-linecap="round" stroke-linejoin="round"/>
<path d="M113.584 57.666V137.469" stroke="white" stroke-width="4" stroke-linecap="round" stroke-linejoin="round"/>
<path d="M22.4177 57.666V137.469" stroke="white" stroke-width="4" stroke-linecap="round" stroke-linejoin="round"/>
<path d="M24.3668 11.7607H31.7668L38.2728 24.1837H17.8608L24.3668 11.7607Z" stroke="white" stroke-width="4" stroke-linecap="round" stroke-linejoin="round"/>
<path d="M24.3668 35.1846H31.7668L38.2728 47.6076H17.8608L24.3668 35.1846Z" stroke="white" stroke-width="4" stroke-linecap="round" stroke-linejoin="round"/>
<path d="M27.9177 57.6664V47.6094" stroke="white" stroke-width="4" stroke-linecap="round" stroke-linejoin="round"/>
<path d="M27.9177 11.761V2" stroke="white" stroke-width="4" stroke-linecap="round" stroke-linejoin="round"/>
<path d="M27.9177 35.1846V24.1836" stroke="white" stroke-width="4" stroke-linecap="round" stroke-linejoin="round"/>
<path d="M64.3027 11.7607H71.6977L78.2077 24.1837H57.7927L64.3027 11.7607Z" stroke="white" stroke-width="4" stroke-linecap="round" stroke-linejoin="round"/>
<path d="M64.3027 35.1846H71.6977L78.2077 47.6076H57.7927L64.3027 35.1846Z" stroke="white" stroke-width="4" stroke-linecap="round" stroke-linejoin="round"/>
<path d="M67.8508 35.1846V24.1836" stroke="white" stroke-width="4" stroke-linecap="round" stroke-linejoin="round"/>
<path d="M67.8508 57.6664V47.6094" stroke="white" stroke-width="4" stroke-linecap="round" stroke-linejoin="round"/>
<path d="M67.8508 11.761V2" stroke="white" stroke-width="4" stroke-linecap="round" stroke-linejoin="round"/>
<path d="M104.236 11.7607H111.636L118.142 24.1837H97.7297L104.236 11.7607Z" stroke="white" stroke-width="4" stroke-linecap="round" stroke-linejoin="round"/>
<path d="M104.236 35.1846H111.636L118.142 47.6076H97.7297L104.236 35.1846Z" stroke="white" stroke-width="4" stroke-linecap="round" stroke-linejoin="round"/>
<path d="M107.787 57.6664V47.6094" stroke="white" stroke-width="4" stroke-linecap="round" stroke-linejoin="round"/>
<path d="M107.787 11.761V2" stroke="white" stroke-width="4" stroke-linecap="round" stroke-linejoin="round"/>
<path d="M107.787 35.1846V24.1836" stroke="white" stroke-width="4" stroke-linecap="round" stroke-linejoin="round"/>
<path d="M66.1898 72.0303L39.2378 118.71C39.0542 119.028 38.9575 119.389 38.9575 119.756C38.9575 120.124 39.0542 120.484 39.2379 120.802C39.4215 121.12 39.6856 121.385 40.0037 121.568C40.3218 121.752 40.6825 121.848 41.0498 121.848H94.9498C95.3171 121.849 95.678 121.752 95.9962 121.568C96.3144 121.385 96.5787 121.121 96.7625 120.803C96.9462 120.485 97.043 120.124 97.0431 119.757C97.0431 119.389 96.9465 119.028 96.7628 118.71L69.8108 72.0303C69.6276 71.7121 69.3638 71.4478 69.046 71.264C68.7281 71.0802 68.3675 70.9834 68.0003 70.9834C67.6331 70.9834 67.2725 71.0802 66.9546 71.264C66.6368 71.4478 66.373 71.7121 66.1898 72.0303Z" stroke="white" stroke-width="4" stroke-linecap="round" stroke-linejoin="round"/>
</g>
</svg>
