<svg width="309" height="92" viewBox="0 0 309 92" fill="none" xmlns="http://www.w3.org/2000/svg">
<mask id="mask0_2430_56" style="mask-type:luminance" maskUnits="userSpaceOnUse" x="0" y="0" width="309" height="92">
<path d="M308.5 0H0V91.407H308.5V0Z" fill="white"/>
</mask>
<g mask="url(#mask0_2430_56)">
<path d="M0 75.111V16.3C0 11.977 1.71732 7.831 4.77416 4.77416C7.831 1.71732 11.977 0 16.3 0L292.2 0C296.523 0 300.669 1.71732 303.726 4.77416C306.783 7.831 308.5 11.977 308.5 16.3V75.111C308.5 79.434 306.783 83.58 303.726 86.6368C300.669 89.6937 296.523 91.411 292.2 91.411H16.3C11.977 91.411 7.831 89.6937 4.77416 86.6368C1.71732 83.58 0 79.434 0 75.111Z" fill="black"/>
<path d="M83.0549 60.42C81.9388 63.0916 80.5689 65.65 78.9639 68.0599C76.3059 72.1059 72.5639 77.145 67.9199 77.187C63.7949 77.225 62.7359 74.503 57.1399 74.533C51.5439 74.563 50.3739 77.233 46.2489 77.197C41.6079 77.154 38.0589 72.604 35.4009 68.559C27.9689 57.246 27.1929 43.97 31.7759 36.912C35.0339 31.896 40.1709 28.96 45.0029 28.96C49.9219 28.96 53.0149 31.6599 57.0819 31.6599C61.0269 31.6599 63.4319 28.96 69.1189 28.96C73.4189 28.96 77.9719 31.2999 81.2189 35.3489C70.5849 41.1759 72.3119 56.365 83.0569 60.425" fill="white"/>
<path d="M64.8027 24.436C65.9669 23.0203 66.8376 21.3869 67.3639 19.6313C67.8903 17.8756 68.0619 16.0326 67.8686 14.21C64.1188 14.655 60.6773 16.5058 58.2386 19.389C56.1466 21.931 54.4197 25.701 55.0917 29.364C56.9758 29.3216 58.8264 28.8568 60.507 28.0039C62.1875 27.151 63.6562 25.9317 64.8027 24.436Z" fill="white"/>
<path d="M117.284 36.7412L106.638 68.0772H111.513L114.691 58.4552H124.998L128.266 68.0772H133.276L122.585 36.7412H117.284ZM119.81 41.8932C120.169 43.2932 120.557 44.7442 121.056 46.3142L123.925 54.6222H115.76L118.589 46.2592C119.02 44.9032 119.429 43.4402 119.81 41.8932Z" fill="white"/>
<path d="M147.053 44.8638C145.596 44.8006 144.146 45.0974 142.832 45.7281C141.517 46.3588 140.378 47.3039 139.515 48.4798L139.326 45.3628H134.989L135.015 45.7628C135.143 47.7048 135.196 49.8418 135.196 52.9098V77.0588H139.937V65.7898C140.748 66.7001 141.748 67.4214 142.868 67.9026C143.988 68.3839 145.2 68.6134 146.418 68.5748C147.761 68.5867 149.092 68.3217 150.328 67.7962C151.565 67.2707 152.679 66.4962 153.602 65.5208C155.795 63.0035 156.932 59.7366 156.774 56.4018C156.882 53.386 155.905 50.4316 154.02 48.0748C153.166 47.0603 152.099 46.2465 150.895 45.6915C149.69 45.1365 148.378 44.8539 147.052 44.8638M145.871 48.7888C150.097 48.7888 151.989 52.7038 151.989 56.5838C151.989 61.5838 149.576 64.6958 145.689 64.6958C144.4 64.6954 143.148 64.2612 142.135 63.4631C141.122 62.6651 140.407 61.5495 140.104 60.2958C139.983 59.7934 139.926 59.2775 139.936 58.7608V54.9488C139.954 54.5553 140.005 54.164 140.087 53.7788C140.11 53.6488 140.136 53.5198 140.155 53.3938C140.464 52.1019 141.192 50.9489 142.227 50.1155C143.261 49.2822 144.542 48.8156 145.87 48.7888" fill="white"/>
<path d="M171.466 44.8637C170.009 44.8009 168.56 45.0979 167.245 45.7286C165.93 46.3593 164.791 47.3041 163.928 48.4797L163.739 45.3627H159.404L159.428 45.7627C159.557 47.7067 159.611 49.8417 159.611 52.9097V77.0587H164.352V65.7897C165.162 66.7 166.162 67.4213 167.282 67.9025C168.402 68.3838 169.613 68.6132 170.831 68.5747C172.175 68.5863 173.506 68.3211 174.743 67.7957C175.98 67.2703 177.095 66.4959 178.019 65.5207C180.21 63.0022 181.345 59.736 181.189 56.4017C181.296 53.3857 180.318 50.4312 178.433 48.0747C177.579 47.0601 176.513 46.2462 175.308 45.6912C174.104 45.1362 172.792 44.8537 171.466 44.8637ZM170.286 48.7887C174.51 48.7887 176.402 52.7037 176.402 56.5837C176.402 61.5837 173.987 64.6957 170.102 64.6957C168.813 64.6951 167.561 64.2609 166.548 63.4628C165.535 62.6648 164.82 61.5493 164.517 60.2957C164.396 59.7932 164.34 59.2774 164.35 58.7607V54.9487C164.367 54.5538 164.418 54.161 164.501 53.7747C164.525 53.6467 164.548 53.5197 164.569 53.3937C164.878 52.102 165.606 50.9491 166.64 50.1157C167.674 49.2824 168.955 48.8157 170.283 48.7887" fill="white"/>
<path d="M202.052 50.0181C197.627 48.3041 196.21 46.9571 196.21 44.4671C196.21 42.3671 197.876 40.2561 201.599 40.2561C203.546 40.2112 205.469 40.695 207.164 41.6561L207.564 41.9041L208.902 37.9471L208.637 37.7921C206.511 36.6826 204.132 36.1485 201.737 36.2431C195.691 36.2431 191.468 39.8121 191.468 44.9211C191.468 49.0411 194.112 51.9211 199.789 53.9851C203.813 55.4851 205.31 57.0291 205.31 59.6701C205.31 62.6591 202.999 64.5141 199.284 64.5141C196.87 64.5165 194.504 63.8457 192.451 62.5771L192.04 62.3131L190.767 66.3611L191.001 66.5161C193.449 67.883 196.209 68.5927 199.013 68.5761C207.161 68.5761 210.051 63.6071 210.051 59.3531C210.051 54.9671 207.735 52.2611 202.051 50.0191" fill="white"/>
<path d="M218.583 39.9639L213.933 41.4239V45.3629H210.533V49.1519H213.933V60.7589C213.933 63.5649 214.47 65.5319 215.574 66.7739C216.171 67.3774 216.887 67.8494 217.677 68.1594C218.467 68.4694 219.313 68.6106 220.161 68.5739C221.406 68.5909 222.645 68.3996 223.826 68.0079L224.092 67.9139L223.865 64.1139L223.41 64.2539C222.693 64.4533 221.949 64.5393 221.205 64.5089C219.368 64.5089 218.583 63.3469 218.583 60.6179V49.1479H224.302V45.3629H218.583V39.9639Z" fill="white"/>
<path d="M236.052 44.864C229.418 44.864 224.786 49.815 224.786 56.901C224.786 63.775 229.269 68.575 235.686 68.575H235.73C241.157 68.575 246.996 64.7939 246.996 56.4929C247.105 53.4131 246.023 50.4097 243.975 48.107C242.954 47.0423 241.721 46.2037 240.356 45.6451C238.991 45.0865 237.524 44.8204 236.049 44.864M235.912 48.607C240.177 48.607 242.119 52.765 242.119 56.63C242.119 61.383 239.469 64.83 235.819 64.83H235.773C232.173 64.83 229.567 61.438 229.567 56.765C229.567 52.704 231.528 48.6049 235.909 48.6049" fill="white"/>
<path d="M261.52 45.0843L261.235 45.0123C260.85 44.9117 260.453 44.862 260.056 44.8643C258.809 44.8908 257.595 45.2614 256.546 45.935C255.497 46.6086 254.654 47.559 254.112 48.6813L253.973 45.3633H249.718L249.745 45.7633C249.872 47.6403 249.924 49.7473 249.924 52.5903L249.88 68.0783H254.621V55.9943C254.618 55.3792 254.662 54.7648 254.752 54.1563C255.287 51.2563 257.245 49.3783 259.74 49.3783C260.165 49.3826 260.589 49.4093 261.012 49.4583L261.519 49.5103L261.52 45.0843Z" fill="white"/>
<path d="M272.175 44.8193C265.864 44.8193 261.456 49.8624 261.456 57.0834C261.456 64.0364 265.841 68.5303 272.63 68.5303C275.206 68.5874 277.764 68.0966 280.136 67.0904L280.421 66.9614L279.51 63.4283L279.11 63.5873C277.225 64.3488 275.202 64.7104 273.17 64.6494C271.11 64.6494 266.359 63.9704 266.07 57.7754L281.37 57.8214L281.432 57.5214C281.542 56.8676 281.589 56.205 281.574 55.5424C281.574 50.5964 279.111 44.8204 272.174 44.8204M271.858 48.4274C272.498 48.3986 273.137 48.5016 273.736 48.73C274.334 48.9585 274.88 49.3075 275.338 49.7554C276.394 50.9831 276.974 52.5498 276.971 54.1694H266.158C266.598 51.4314 268.311 48.4274 271.858 48.4274Z" fill="white"/>
<path d="M106.638 15.3353C108.145 15.1327 109.664 15.0298 111.185 15.0273C114.242 15.0273 116.418 15.6433 117.861 16.8543C118.642 17.5003 119.262 18.3204 119.67 19.249C120.077 20.1775 120.261 21.1887 120.208 22.2013C120.248 23.2761 120.058 24.3471 119.648 25.3417C119.239 26.3363 118.621 27.2314 117.836 27.9663C116.271 29.3523 113.728 30.1013 110.525 30.1013C109.226 30.1192 107.928 30.0605 106.637 29.9253L106.638 15.3353ZM108.79 28.4723C109.504 28.552 110.223 28.5815 110.942 28.5603C115.489 28.5813 117.958 26.2723 117.958 22.2673C117.983 18.7243 115.782 16.5463 111.284 16.5463C110.448 16.5357 109.613 16.6027 108.79 16.7463V28.4723Z" fill="white"/>
<path d="M127.834 30.2102C127.094 30.2558 126.352 30.1469 125.656 29.8903C124.96 29.6336 124.325 29.235 123.792 28.7196C123.258 28.2043 122.838 27.5835 122.557 26.8969C122.277 26.2102 122.142 25.4727 122.162 24.7312C122.162 21.1662 124.778 19.0762 128.029 19.0762C131.429 19.0762 133.729 21.2982 133.729 24.5332C133.729 28.4942 130.673 30.2102 127.862 30.2102H127.834ZM127.907 28.7572C129.961 28.7572 131.501 27.0192 131.501 24.5982C131.501 22.7982 130.501 20.5282 127.956 20.5282C125.437 20.5282 124.337 22.6412 124.337 24.6652C124.337 26.9972 125.804 28.7572 127.882 28.7572H127.907Z" fill="white"/>
<path d="M137.13 19.3164L138.719 24.7084C139.036 25.8964 139.355 27.0184 139.575 28.1184H139.648C139.917 27.0394 140.308 25.8954 140.699 24.7304L142.631 19.3164H144.441L146.275 24.6414C146.714 25.8964 147.057 27.0414 147.326 28.1184H147.399C147.629 26.9496 147.929 25.7958 148.299 24.6634L149.985 19.3164H152.113L148.299 29.9664H146.343L144.534 24.8834C144.122 23.729 143.771 22.5537 143.482 21.3624H143.434C143.15 22.5649 142.79 23.7483 142.357 24.9054L140.451 29.9664H138.495L134.925 19.3164H137.13Z" fill="white"/>
<path d="M154.271 22.2013C154.271 21.0783 154.247 20.2013 154.171 19.3183H156.079L156.201 21.0573H156.25C156.678 20.4197 157.262 19.9027 157.947 19.5558C158.631 19.2089 159.394 19.0438 160.161 19.0763C161.8 19.0763 164.342 19.9563 164.342 23.6093V29.9683H162.192V23.8293C162.192 22.1133 161.482 20.6613 159.452 20.6613C158.827 20.6581 158.215 20.846 157.7 21.1998C157.184 21.5537 156.789 22.0566 156.567 22.6413C156.465 22.9303 156.416 23.235 156.42 23.5413V29.9663H154.269L154.271 22.2013Z" fill="white"/>
<path d="M169.992 14.3447H167.84V29.9667H169.992V14.3447Z" fill="white"/>
<path d="M178.379 30.2102C177.639 30.2557 176.897 30.1466 176.201 29.89C175.505 29.6333 174.87 29.2346 174.337 28.7193C173.803 28.204 173.383 27.5833 173.102 26.8967C172.822 26.2101 172.687 25.4726 172.707 24.7312C172.707 21.1662 175.322 19.0762 178.575 19.0762C181.975 19.0762 184.275 21.2982 184.275 24.5332C184.275 28.4942 181.219 30.2102 178.407 30.2102H178.379ZM178.451 28.7572C180.505 28.7572 182.051 27.0192 182.051 24.5982C182.051 22.7982 181.051 20.5282 178.506 20.5282C175.987 20.5282 174.886 22.6412 174.886 24.6652C174.886 26.9972 176.353 28.7572 178.432 28.7572H178.451Z" fill="white"/>
<path d="M195.324 27.411C195.313 28.2648 195.37 29.1182 195.495 29.963H193.563L193.363 28.621H193.291C192.845 29.1401 192.289 29.5521 191.662 29.8263C191.036 30.1006 190.355 30.23 189.672 30.205C187.272 30.205 186.053 28.687 186.053 27.146C186.053 24.572 188.595 23.163 193.167 23.185V22.965C193.167 22.085 192.899 20.479 190.479 20.501C189.394 20.4876 188.325 20.7604 187.379 21.292L186.889 19.992C188.098 19.3692 189.442 19.0519 190.802 19.068C194.445 19.068 195.324 21.29 195.324 23.425V27.411ZM193.224 24.528C190.877 24.484 188.212 24.858 188.212 26.928C188.203 27.1862 188.25 27.4431 188.35 27.6815C188.449 27.9198 188.599 28.1339 188.789 28.3093C188.979 28.4846 189.204 28.617 189.449 28.6975C189.695 28.7781 189.955 28.8048 190.212 28.776C190.821 28.8118 191.426 28.6602 191.946 28.3413C192.466 28.0225 192.875 27.5519 193.12 26.993C193.189 26.7952 193.223 26.5866 193.22 26.377L193.224 24.528Z" fill="white"/>
<path d="M208.992 14.3447V27.2167C208.992 28.1627 209.017 29.2407 209.091 29.9677H207.16L207.06 28.1197H207.012C206.593 28.7963 205.999 29.3474 205.293 29.7152C204.588 30.083 203.796 30.2538 203.002 30.2097C202.305 30.2123 201.615 30.0716 200.975 29.7962C200.335 29.5208 199.759 29.1167 199.282 28.6089C198.805 28.1012 198.437 27.5007 198.202 26.8449C197.967 26.1891 197.869 25.4919 197.915 24.7967C197.859 24.066 197.954 23.3314 198.195 22.6392C198.436 21.947 198.818 21.3122 199.316 20.7748C199.815 20.2374 200.419 19.809 201.091 19.5166C201.763 19.2242 202.489 19.0741 203.221 19.0757C203.904 19.0216 204.589 19.1404 205.213 19.4211C205.837 19.7018 206.38 20.1354 206.793 20.6817H206.84V14.3447H208.992ZM206.84 23.6517C206.844 23.3699 206.81 23.0888 206.741 22.8157C206.544 22.1536 206.133 21.5756 205.571 21.1731C205.01 20.7706 204.331 20.5664 203.64 20.5927C201.415 20.5927 200.096 22.3527 200.096 24.6857C200.096 26.8637 201.296 28.6457 203.596 28.6457C204.303 28.6634 204.996 28.4463 205.566 28.0284C206.137 27.6104 206.553 27.0152 206.75 26.3357C206.822 26.0631 206.855 25.7817 206.849 25.4997L206.84 23.6517Z" fill="white"/>
<path d="M222.561 30.2102C221.821 30.2557 221.079 30.1466 220.384 29.89C219.688 29.6333 219.053 29.2346 218.519 28.7193C217.986 28.204 217.565 27.5833 217.285 26.8967C217.004 26.2101 216.87 25.4726 216.89 24.7312C216.89 21.1662 219.508 19.0762 222.758 19.0762C226.158 19.0762 228.457 21.2982 228.457 24.5332C228.457 28.4942 225.401 30.2102 222.592 30.2102H222.561ZM222.635 28.7572C224.689 28.7572 226.229 27.0192 226.229 24.5982C226.229 22.7982 225.23 20.5282 222.686 20.5282C220.167 20.5282 219.067 22.6412 219.067 24.6652C219.067 26.9972 220.534 28.7572 222.611 28.7572H222.635Z" fill="white"/>
<path d="M231.17 22.2013C231.17 21.0783 231.145 20.2013 231.07 19.3183H232.977L233.101 21.0573H233.149C233.577 20.4197 234.161 19.9027 234.846 19.5558C235.531 19.2089 236.293 19.0438 237.06 19.0763C238.698 19.0763 241.241 19.9563 241.241 23.6093V29.9683H239.089V23.8293C239.089 22.1133 238.381 20.6613 236.35 20.6613C235.725 20.6586 235.114 20.8468 234.598 21.2006C234.083 21.5544 233.688 22.0569 233.465 22.6413C233.365 22.9305 233.315 23.2351 233.319 23.5413V29.9663H231.168L231.17 22.2013Z" fill="white"/>
<path d="M252.516 16.7656V19.3176H255.596V20.7906H252.516V26.5346C252.516 27.8546 252.932 28.6026 254.13 28.6026C254.55 28.6177 254.97 28.5733 255.377 28.4706L255.477 29.9446C254.858 30.1273 254.215 30.2163 253.57 30.2086C252.719 30.2516 251.885 29.9594 251.247 29.3946C250.615 28.6059 250.316 27.6007 250.416 26.5946V20.7906H248.582V19.3166H250.416V17.3586L252.516 16.7656Z" fill="white"/>
<path d="M258.018 14.3447H260.168V20.9917H260.219C260.592 20.3987 261.127 19.9253 261.76 19.6277C262.436 19.2613 263.192 19.0721 263.96 19.0777C265.548 19.0777 268.092 19.9577 268.092 23.6327V29.9697H265.94V23.8527C265.94 22.1137 265.231 20.6837 263.201 20.6837C262.582 20.6804 261.976 20.8632 261.461 21.2084C260.947 21.5536 260.548 22.0452 260.316 22.6197C260.199 22.9129 260.149 23.2286 260.168 23.5437V29.9687H258.018V14.3447Z" fill="white"/>
<path d="M272.81 24.9732C272.86 27.5922 274.694 28.6731 276.845 28.6731C277.961 28.7023 279.072 28.5229 280.122 28.1441L280.513 29.5082C279.248 29.9869 277.903 30.2188 276.551 30.1911C272.932 30.1911 270.731 28.0122 270.731 24.8222C270.683 24.0688 270.792 23.3138 271.053 22.6053C271.313 21.8968 271.719 21.2505 272.244 20.7079C272.768 20.1652 273.401 19.7381 274.1 19.4538C274.799 19.1696 275.55 19.0344 276.305 19.0571C280.17 19.0571 281.171 22.1151 281.171 24.0741C281.179 24.3838 281.154 24.6935 281.099 24.9981L272.81 24.9732ZM279.095 23.5871C279.137 23.1795 279.09 22.7676 278.959 22.3794C278.828 21.9912 278.615 21.6358 278.334 21.3373C278.053 21.0388 277.711 20.8042 277.332 20.6494C276.952 20.4946 276.544 20.4232 276.135 20.4401C275.289 20.4512 274.479 20.7818 273.866 21.3655C273.254 21.9492 272.886 22.7429 272.835 23.5871H279.095Z" fill="white"/>
</g>
</svg>
