<svg width="66" height="57" viewBox="0 0 66 57" fill="none" xmlns="http://www.w3.org/2000/svg">
<mask id="mask0_2378_1447" style="mask-type:luminance" maskUnits="userSpaceOnUse" x="0" y="0" width="66" height="57">
<path d="M65.4161 0.833008H0.827148V56.844H65.4161V0.833008Z" fill="white"/>
</mask>
<g mask="url(#mask0_2378_1447)">
<path d="M31.9791 33.309L31.8791 33.345C31.3626 33.5607 30.8967 33.8815 30.5111 34.2872C30.1254 34.6928 29.8284 35.1743 29.6391 35.701C29.3968 35.6768 29.1587 35.6206 28.9311 35.534L1.6901 27.878C1.4241 27.801 1.1611 27.755 0.898098 27.662L0.850098 16.85C0.850098 14.139 1.7411 11.71 4.8291 11.167C5.44798 11.0988 6.07148 11.0824 6.6931 11.118H21.9491L21.9551 3.53698C21.9198 3.1235 21.9427 2.70711 22.0231 2.29998L22.0401 2.24698C22.4581 0.890984 23.4271 0.843984 24.5921 0.842984H34.4711L41.6931 0.833984C43.6751 0.833984 44.3071 1.45198 44.2931 3.30298V11.122H60.8501C61.1555 11.105 61.4617 11.1346 61.7581 11.21L62.6291 11.517C63.4498 11.8977 64.1451 12.5043 64.6335 13.2659C65.1219 14.0274 65.3833 14.9123 65.3871 15.817V27.6C65.1255 27.7137 64.8502 27.7927 64.5681 27.835L36.6881 35.722L36.6621 35.622C36.3289 34.7079 35.6565 33.9573 34.7845 33.5259C33.9125 33.0944 32.9079 33.0153 31.9791 33.305M26.2641 5.09598L26.2561 11.126L40.0161 11.121L39.9991 5.10098L26.2641 5.09598Z" fill="#F4F4F4"/>
<path d="M0.853159 45.9818L0.843159 29.8008C1.15094 29.9527 1.48059 30.0557 1.82016 30.1058L29.3012 37.8598C29.9112 38.0168 29.7242 38.2878 29.9782 38.8418C31.4472 42.0598 36.2782 41.0418 36.6322 37.9298L65.3082 29.8118L65.3722 29.8338C65.4562 30.7648 65.3912 31.7598 65.3922 32.6978L65.3852 52.2178C65.2932 55.1668 63.0422 56.8088 60.2762 56.8288H7.04516C6.37434 56.8549 5.70257 56.8425 5.03316 56.7918C4.04352 56.6571 3.11953 56.2203 2.38722 55.5412C1.65491 54.862 1.14993 53.9735 0.941159 52.9968C0.817746 52.1268 0.787241 51.2462 0.850159 50.3698L0.853159 45.9818Z" fill="#F4F4F4"/>
</g>
</svg>
