<svg width="22" height="34" viewBox="0 0 22 34" fill="none" xmlns="http://www.w3.org/2000/svg">
<path d="M10.0553 33.2229V0.495648H12.1519V33.2229H10.0553ZM15.6164 11.2982C15.5141 10.267 15.0752 9.46582 14.2996 8.8948C13.5241 8.32377 12.4715 8.03826 11.142 8.03826C10.2385 8.03826 9.47576 8.1661 8.8536 8.42179C8.23145 8.66895 7.75417 9.01412 7.42179 9.4573C7.09792 9.90048 6.93599 10.4033 6.93599 10.9658C6.91895 11.4346 7.01696 11.8437 7.23003 12.1931C7.45162 12.5425 7.75417 12.8451 8.1377 13.1008C8.52122 13.3479 8.9644 13.5653 9.46724 13.7528C9.97008 13.9317 10.507 14.0851 11.078 14.213L13.4303 14.7755C14.5724 15.0312 15.6207 15.3721 16.5752 15.7982C17.5297 16.2243 18.3564 16.7485 19.0553 17.3706C19.7542 17.9928 20.2954 18.7258 20.6789 19.5695C21.0709 20.4133 21.2712 21.3806 21.2797 22.4715C21.2712 24.0738 20.8621 25.463 20.0525 26.6391C19.2513 27.8067 18.0922 28.7144 16.5752 29.3621C15.0667 30.0013 13.2471 30.3209 11.1164 30.3209C9.00275 30.3209 7.16184 29.9971 5.59366 29.3493C4.034 28.7016 2.81525 27.7428 1.93741 26.4729C1.06809 25.1945 0.612127 23.6135 0.569513 21.73H5.92605C5.98571 22.6079 6.23713 23.3408 6.68031 23.9289C7.13201 24.5084 7.73287 24.9474 8.48287 25.2456C9.24139 25.5354 10.0979 25.6803 11.0525 25.6803C11.99 25.6803 12.8039 25.5439 13.4942 25.2712C14.1931 24.9985 14.7343 24.6192 15.1178 24.1334C15.5013 23.6476 15.6931 23.0894 15.6931 22.4587C15.6931 21.8706 15.5184 21.3763 15.1689 20.9758C14.828 20.5752 14.3252 20.2343 13.6604 19.953C13.0042 19.6718 12.1988 19.4161 11.2442 19.186L8.39338 18.4701C6.18599 17.9331 4.44309 17.0937 3.16468 15.9516C1.88627 14.8096 1.25133 13.2712 1.25985 11.3366C1.25133 9.75133 1.67321 8.36639 2.52548 7.18173C3.38627 5.99707 4.56667 5.07235 6.06667 4.40758C7.56667 3.74281 9.27122 3.41042 11.1803 3.41042C13.1235 3.41042 14.8195 3.74281 16.2684 4.40758C17.7258 5.07235 18.8593 5.99707 19.6689 7.18173C20.4786 8.36639 20.8962 9.73855 20.9218 11.2982H15.6164Z" fill="black"/>
</svg>
