<svg width="33" height="30" viewBox="0 0 33 30" fill="none" xmlns="http://www.w3.org/2000/svg">
<g clip-path="url(#clip0_2447_44)">
<mask id="mask0_2447_44" style="mask-type:luminance" maskUnits="userSpaceOnUse" x="0" y="0" width="33" height="30">
<path d="M32.714 0H0V29.271H32.714V0Z" fill="white"/>
</mask>
<g mask="url(#mask0_2447_44)">
<path d="M32.2391 23.9819L19.4101 1.76289C19.1012 1.22616 18.6563 0.780322 18.1202 0.470311C17.5842 0.160301 16.9758 -0.00292969 16.3566 -0.00292969C15.7373 -0.00292969 15.129 0.160301 14.5929 0.470311C14.0568 0.780322 13.612 1.22616 13.3031 1.76289L0.475086 23.9819C0.164628 24.5178 0.000929231 25.1261 0.000489171 25.7454C4.91108e-05 26.3647 0.162884 26.9732 0.472579 27.5096C0.782275 28.0459 1.22789 28.4911 1.7645 28.8004C2.30111 29.1096 2.90976 29.2719 3.52909 29.2709H29.1851C29.8044 29.2719 30.4131 29.1096 30.9497 28.8004C31.4863 28.4911 31.9319 28.0459 32.2416 27.5096C32.5513 26.9732 32.7141 26.3647 32.7137 25.7454C32.7132 25.1261 32.5495 24.5178 32.2391 23.9819ZM19.6751 22.7709L16.0861 26.1409L14.9301 21.3549L16.3921 22.3339L17.6841 17.0849L12.8051 18.5849L13.6051 9.47789L17.6671 8.71889L15.8001 15.1709L21.0461 13.8899L17.9121 22.7899L19.6751 22.7709Z" fill="#131414"/>
</g>
</g>
<defs>
<clipPath id="clip0_2447_44">
<rect width="32.714" height="29.271" fill="white"/>
</clipPath>
</defs>
</svg>
