<svg width="20" height="36" viewBox="0 0 20 36" fill="none" xmlns="http://www.w3.org/2000/svg">
<path d="M10.8855 27.5165C12.1929 27.3439 13.1795 26.906 13.8455 26.203C14.5239 25.4877 14.863 24.5565 14.863 23.4095C14.863 22.9409 14.7767 22.5339 14.604 22.1885C14.4437 21.8309 14.2094 21.5164 13.901 21.245C13.605 20.9737 13.2535 20.7394 12.8465 20.542C12.4395 20.3447 11.9955 20.1597 11.5145 19.987L10.8855 27.5165ZM9.70154 7.96204C9.01087 8.04837 8.42504 8.19637 7.94404 8.40603C7.46304 8.60337 7.06837 8.85003 6.76004 9.14603C6.4517 9.44203 6.22354 9.77503 6.07554 10.145C5.93987 10.515 5.87204 10.9035 5.87204 11.3105C5.87204 11.7792 5.9522 12.1924 6.11254 12.55C6.2852 12.8954 6.51337 13.2099 6.79704 13.4935C7.09304 13.7649 7.43837 14.0115 7.83304 14.2335C8.2277 14.4432 8.65937 14.6405 9.12804 14.8255L9.70154 7.96204ZM11.866 15.7135C12.754 15.9849 13.6359 16.287 14.5115 16.62C15.3872 16.9407 16.1704 17.36 16.861 17.878C17.564 18.396 18.1314 19.0435 18.563 19.8205C18.9947 20.5852 19.2105 21.5472 19.2105 22.7065C19.2105 23.8535 19.0194 24.9327 18.637 25.944C18.2547 26.943 17.6935 27.831 16.9535 28.608C16.2135 29.3727 15.307 30.0017 14.234 30.495C13.161 30.976 11.9339 31.2597 10.5525 31.346L10.3305 34.0655C10.3182 34.3492 10.1949 34.6082 9.96054 34.8425C9.73854 35.0892 9.45487 35.2125 9.10954 35.2125H7.42604L7.75904 31.2535C6.31604 31.0562 4.95937 30.6615 3.68904 30.0695C2.4187 29.4775 1.33954 28.7437 0.451536 27.868L1.85754 25.7775C1.98087 25.5925 2.1412 25.4445 2.33854 25.3335C2.5482 25.2102 2.7702 25.1485 3.00454 25.1485C3.27587 25.1485 3.5657 25.2472 3.87404 25.4445C4.18237 25.6295 4.53387 25.8515 4.92854 26.1105C5.3232 26.3572 5.77337 26.61 6.27904 26.869C6.7847 27.128 7.38287 27.3192 8.07354 27.4425L8.75804 19.173C7.88237 18.9264 7.01287 18.6365 6.14954 18.3035C5.29854 17.9705 4.5277 17.5327 3.83704 16.99C3.1587 16.435 2.60987 15.7382 2.19054 14.8995C1.7712 14.0609 1.56154 13.0125 1.56154 11.7545C1.56154 10.8172 1.74654 9.90454 2.11654 9.01653C2.48654 8.1162 3.0292 7.31454 3.74454 6.61153C4.4722 5.90853 5.3602 5.32887 6.40854 4.87254C7.45687 4.4162 8.65937 4.1572 10.016 4.09553L10.2195 1.76454C10.2442 1.46853 10.3675 1.20337 10.5895 0.969036C10.8115 0.734702 11.1014 0.617535 11.459 0.617535H13.1425L12.8465 4.24353C14.1539 4.4532 15.2824 4.82937 16.232 5.37203C17.1817 5.90237 18.0019 6.50053 18.6925 7.16653L17.5825 8.85004C17.4222 9.0967 17.2557 9.2817 17.083 9.40504C16.9104 9.52837 16.7007 9.59004 16.454 9.59004C16.269 9.59004 16.047 9.53454 15.788 9.42354C15.529 9.3002 15.2392 9.15837 14.9185 8.99804C14.5979 8.82537 14.234 8.6527 13.827 8.48004C13.4324 8.30737 12.9945 8.16554 12.5135 8.05454L11.866 15.7135Z" fill="#F2BD2B"/>
</svg>
