<svg width="22" height="35" viewBox="0 0 22 35" fill="none" xmlns="http://www.w3.org/2000/svg">
<path d="M9.82977 34.4974V0.86106H11.9846V34.4974H9.82977ZM15.5453 11.9637C15.4402 10.9038 14.9891 10.0804 14.192 9.49352C13.3949 8.90663 12.3131 8.61319 10.9466 8.61319C10.0181 8.61319 9.23412 8.74458 8.59468 9.00737C7.95524 9.26139 7.46471 9.61615 7.12309 10.0716C6.79023 10.5271 6.6238 11.0439 6.6238 11.6221C6.60628 12.1038 6.70702 12.5243 6.926 12.8834C7.15375 13.2426 7.46471 13.5535 7.85889 13.8163C8.25306 14.0703 8.70856 14.2937 9.22536 14.4864C9.74217 14.6704 10.294 14.828 10.8809 14.9594L13.2985 15.5376C14.4723 15.8003 15.5497 16.1507 16.5308 16.5887C17.5118 17.0267 18.3615 17.5654 19.0798 18.2048C19.798 18.8443 20.3543 19.5976 20.7484 20.4648C21.1514 21.3319 21.3572 22.3261 21.366 23.4474C21.3572 25.0941 20.9368 26.5219 20.1046 27.7307C19.2812 28.9308 18.0899 29.8637 16.5308 30.5294C14.9803 31.1863 13.1102 31.5148 10.9203 31.5148C8.74797 31.5148 6.85593 31.182 5.24419 30.5162C3.6412 29.8505 2.3886 28.8651 1.48637 27.5599C0.592907 26.246 0.124275 24.6211 0.0804776 22.6853H5.5858C5.64712 23.5875 5.90553 24.3408 6.36102 24.9452C6.82527 25.5409 7.44281 25.992 8.21365 26.2986C8.99324 26.5964 9.87356 26.7453 10.8546 26.7453C11.8182 26.7453 12.6547 26.6051 13.3642 26.3248C14.0825 26.0445 14.6387 25.6547 15.0329 25.1555C15.4271 24.6562 15.6242 24.0824 15.6242 23.4342C15.6242 22.8298 15.4446 22.3218 15.0854 21.9101C14.7351 21.4984 14.2183 21.148 13.535 20.8589C12.8605 20.5699 12.0328 20.3071 11.0517 20.0706L8.12167 19.3348C5.85297 18.7829 4.06166 17.9201 2.74774 16.7464C1.43382 15.5726 0.781235 13.9915 0.789995 12.0031C0.781235 10.3738 1.21483 8.95043 2.09078 7.73287C2.97548 6.5153 4.18867 5.5649 5.73034 4.88166C7.272 4.19842 9.0239 3.8568 10.986 3.8568C12.9832 3.8568 14.7263 4.19842 16.2154 4.88166C17.7133 5.5649 18.8783 6.5153 19.7104 7.73287C20.5426 8.95043 20.9718 10.3607 20.9981 11.9637H15.5453Z" fill="#F2BD2B"/>
</svg>
