<svg width="40" height="36" viewBox="0 0 40 36" fill="none" xmlns="http://www.w3.org/2000/svg">
<mask id="mask0_2_1562" style="mask-type:luminance" maskUnits="userSpaceOnUse" x="0" y="0" width="40" height="36">
<path d="M40 0.0870361H0.884033V35.087H40V0.0870361Z" fill="white"/>
</mask>
<g mask="url(#mask0_2_1562)">
<path d="M39.432 28.763L24.093 2.19504C23.7237 1.55366 23.1918 1.02093 22.551 0.650506C21.9102 0.280084 21.1832 0.0850525 20.443 0.0850525C19.7029 0.0850525 18.9758 0.280084 18.335 0.650506C17.6943 1.02093 17.1624 1.55366 16.793 2.19504L1.45202 28.763C1.08145 29.4037 0.886222 30.1306 0.885987 30.8707C0.885751 31.6108 1.08052 32.3379 1.45068 32.9787C1.82084 33.6196 2.35332 34.1516 2.99451 34.5212C3.63569 34.8908 4.36294 35.0849 5.10302 35.084H35.784C36.5245 35.0852 37.2523 34.8912 37.8939 34.5214C38.5355 34.1517 39.0683 33.6193 39.4385 32.978C39.8088 32.3367 40.0034 31.6091 40.0028 30.8685C40.0022 30.128 39.8063 29.4007 39.435 28.76M24.409 27.314L20.117 31.344L18.736 25.622L20.484 26.792L22.029 20.516L16.196 22.316L17.157 11.427L22.014 10.519L19.784 18.227L26.057 16.695L22.309 27.335L24.409 27.314Z" fill="#FFC72D"/>
</g>
</svg>
