<svg width="48" height="48" viewBox="0 0 48 48" fill="none" xmlns="http://www.w3.org/2000/svg">
<path d="M23.7 0C19.0126 0 14.4304 1.38998 10.533 3.99417C6.63555 6.59836 3.59786 10.2998 1.80407 14.6304C0.0102688 18.961 -0.45907 23.7263 0.4554 28.3236C1.36987 32.921 3.62708 37.1439 6.94158 40.4584C10.2561 43.7729 14.479 46.0301 19.0764 46.9446C23.6737 47.8591 28.439 47.3897 32.7696 45.5959C37.1002 43.8021 40.8017 40.7645 43.4058 36.867C46.01 32.9696 47.4 28.3874 47.4 23.7C47.4 17.4144 44.9031 11.3862 40.4584 6.94157C36.0138 2.49696 29.9856 0 23.7 0ZM39.085 39.085C35.0036 43.1664 29.468 45.4593 23.696 45.4593C17.924 45.4593 12.3884 43.1664 8.30701 39.085C4.22559 35.0036 1.93268 29.468 1.93268 23.696C1.93268 17.924 4.22559 12.3884 8.30701 8.307C12.3884 4.22558 17.924 1.93267 23.696 1.93267C29.468 1.93267 35.0036 4.22558 39.085 8.307C43.1664 12.3884 45.4593 17.924 45.4593 23.696C45.4593 29.468 43.1664 35.0036 39.085 39.085Z" fill="#131414"/>
<mask id="mask0_2385_4" style="mask-type:luminance" maskUnits="userSpaceOnUse" x="0" y="0" width="48" height="48">
<path d="M47.392 0H0V47.392H47.392V0Z" fill="white"/>
</mask>
<g mask="url(#mask0_2385_4)">
<path d="M18 18.709H29.282L28.677 22.925H18V18.709ZM19.982 17.165C19.982 12.885 21.547 11 25.859 11H29.282V15.4H25.982C25.8267 15.3926 25.6721 15.4255 25.5333 15.4956C25.3945 15.5657 25.2762 15.6706 25.19 15.8C24.9981 16.1071 24.9039 16.4652 24.92 16.827V37.193H19.982V17.165Z" fill="#131414"/>
</g>
</svg>
