<svg width="527" height="771" viewBox="0 0 527 771" fill="none" xmlns="http://www.w3.org/2000/svg">
<g opacity="0.04">
<path d="M283.392 0H244.17L136.17 457.119L0.439941 771H42.0959L172.545 469.173L282.357 4.391L283.392 0Z" fill="#131414"/>
<path d="M283.392 0H244.17L245.208 4.388L354.634 467.535L355.019 469.173L485.47 771H527L391.4 457.121L283.392 0Z" fill="#131414"/>
<path d="M410.336 528.993L32.6659 747.048L39.0274 758.066L416.698 540.011L410.336 528.993Z" fill="#131414"/>
<path d="M376.918 436.324L91.476 601.129L97.8375 612.147L383.28 447.342L376.918 436.324Z" fill="#131414"/>
<path d="M356.572 336.109L164.494 447.008L170.856 458.027L362.934 347.128L356.572 336.109Z" fill="#131414"/>
<path d="M332.408 238.092L188.66 321.088L195.022 332.107L338.77 249.111L332.408 238.092Z" fill="#131414"/>
<path d="M309.062 139.607L212.01 195.641L218.372 206.659L315.423 150.625L309.062 139.607Z" fill="#131414"/>
<path d="M118.735 529.977L112.374 540.997L488.413 758.068L494.774 747.049L118.735 529.977Z" fill="#131414"/>
<path d="M157.234 440.231L150.873 451.25L438.401 617.228L444.762 606.209L157.234 440.231Z" fill="#131414"/>
<path d="M175.236 338.653L168.875 349.671L373.946 468.072L380.307 457.054L175.236 338.653Z" fill="#131414"/>
<path d="M203.054 242.74L196.692 253.759L343.601 338.58L349.963 327.561L203.054 242.74Z" fill="#131414"/>
<path d="M221.078 141.175L214.716 152.194L306.357 205.105L312.719 194.086L221.078 141.175Z" fill="#131414"/>
<path d="M319.141 96.9189H518.197V135.089H328.161L319.141 96.9189Z" fill="#131414"/>
<path d="M9.245 135.089V96.918H208.425L199.404 135.089H9.245Z" fill="#131414"/>
<path d="M362.1 278.744H518.2V316.914H371.118L362.1 278.744Z" fill="#131414"/>
<path d="M9.245 316.915V278.745H165.463L156.445 316.915H9.245Z" fill="#131414"/>
<path d="M63.5319 84.1949H25.3619L38.0839 61.2949H50.8079L63.5319 84.1949Z" fill="#131414"/>
<path d="M25.36 0.217041L38.084 23.126H50.808L63.53 0.217041H25.36Z" fill="#131414"/>
<path d="M63.5329 35.843H25.3629V48.567H63.5329V35.843Z" fill="#131414"/>
<path d="M141.917 84.1949H103.746L116.468 61.2949H129.192L141.917 84.1949Z" fill="#131414"/>
<path d="M103.745 0.217041L116.469 23.126H129.193L141.915 0.217041H103.745Z" fill="#131414"/>
<path d="M141.917 35.843H103.747V48.567H141.917V35.843Z" fill="#131414"/>
<path d="M463.907 84.1949H502.077L489.355 61.2949H476.631L463.907 84.1949Z" fill="#131414"/>
<path d="M463.906 0.217041L476.63 23.126H489.354L502.076 0.217041H463.906Z" fill="#131414"/>
<path d="M502.078 35.843H463.908V48.567H502.078V35.843Z" fill="#131414"/>
<path d="M385.523 84.1949H423.689L410.967 61.2949H398.247L385.523 84.1949Z" fill="#131414"/>
<path d="M385.524 0.217041L398.248 23.126H410.972L423.69 0.217041H385.524Z" fill="#131414"/>
<path d="M423.693 35.843H385.523V48.567H423.693V35.843Z" fill="#131414"/>
<path d="M63.5319 266.02H25.3619L38.0839 243.12H50.8079L63.5319 266.02Z" fill="#131414"/>
<path d="M63.5319 182.043H25.3619L38.0839 204.943H50.8079L63.5319 182.043Z" fill="#131414"/>
<path d="M63.5329 217.669H25.3629V230.393H63.5329V217.669Z" fill="#131414"/>
<path d="M141.917 266.02H103.746L116.468 243.12H129.192L141.917 266.02Z" fill="#131414"/>
<path d="M141.917 182.043H103.746L116.468 204.943H129.192L141.917 182.043Z" fill="#131414"/>
<path d="M141.917 217.669H103.747V230.393H141.917V217.669Z" fill="#131414"/>
<path d="M463.907 266.02H502.077L489.355 243.12H476.631L463.907 266.02Z" fill="#131414"/>
<path d="M463.907 182.043H502.077L489.355 204.943H476.631L463.907 182.043Z" fill="#131414"/>
<path d="M502.078 217.669H463.908V230.393H502.078V217.669Z" fill="#131414"/>
<path d="M385.523 266.02H423.689L410.967 243.12H398.247L385.523 266.02Z" fill="#131414"/>
<path d="M385.523 182.043H423.689L410.967 204.943H398.247L385.523 182.043Z" fill="#131414"/>
<path d="M423.693 217.669H385.523V230.393H423.693V217.669Z" fill="#131414"/>
</g>
</svg>
