<svg width="54" height="57" viewBox="0 0 54 57" fill="none" xmlns="http://www.w3.org/2000/svg">
<path d="M40.7841 11.5273L34.0601 3.9873V11.5273H40.7841Z" fill="#F4F4F4"/>
<mask id="mask0_2378_1474" style="mask-type:luminance" maskUnits="userSpaceOnUse" x="0" y="0" width="54" height="57">
<path d="M53.377 0.833008H0.092041V56.844H53.377V0.833008Z" fill="white"/>
</mask>
<g mask="url(#mask0_2378_1474)">
<path d="M1.77609 0.833017H32.2761V11.615C32.2815 12.0625 32.4608 12.4904 32.7761 12.808C33.0935 13.123 33.5229 13.2992 33.9701 13.298H43.4331V15.133L33.7921 37.579L33.6671 38.069L32.5231 47.595V47.62C32.472 48.1826 32.6043 48.7467 32.9001 49.228C33.1899 49.714 33.625 50.0967 34.1441 50.322C34.6628 50.5459 35.2393 50.5988 35.7901 50.473C36.3431 50.3538 36.8445 50.0634 37.2231 49.643L37.2481 49.618H37.2351L43.3551 42.242L43.4301 42.116V55.159C43.4302 55.3795 43.386 55.5977 43.3001 55.8008C43.2142 56.0038 43.0884 56.1876 42.9301 56.341C42.7774 56.5003 42.5938 56.6268 42.3906 56.7128C42.1874 56.7988 41.9688 56.8424 41.7481 56.841H1.77609C1.55543 56.8424 1.3368 56.7988 1.13357 56.7128C0.930341 56.6268 0.746775 56.5003 0.594094 56.341C0.435342 56.1878 0.309076 56.0042 0.222829 55.8011C0.136581 55.598 0.0921188 55.3797 0.0920936 55.159V2.51702C0.0903139 2.296 0.133751 2.07696 0.219736 1.87335C0.30572 1.66973 0.432436 1.48586 0.592094 1.33302V1.32302C0.747203 1.16706 0.931728 1.04344 1.13497 0.959323C1.33822 0.875211 1.55613 0.832279 1.77609 0.833017ZM34.0601 1.32302L43.1461 11.523H34.0601V1.32302Z" fill="#F4F4F4"/>
<path fill-rule="evenodd" clip-rule="evenodd" d="M8.70107 31.3321H32.8921C33.0085 31.3311 33.1239 31.3532 33.2317 31.3969C33.3396 31.4407 33.4378 31.5053 33.5206 31.587C33.6035 31.6688 33.6694 31.766 33.7146 31.8733C33.7598 31.9806 33.7834 32.0957 33.7841 32.2121C33.782 32.448 33.6873 32.6737 33.5205 32.8405C33.3537 33.0073 33.128 33.102 32.8921 33.1041H8.70107C8.58468 33.1034 8.46956 33.0798 8.36231 33.0346C8.25506 32.9894 8.15777 32.9235 8.07603 32.8406C7.99429 32.7577 7.9297 32.6596 7.88595 32.5517C7.8422 32.4439 7.82015 32.3285 7.82107 32.2121C7.82028 32.0963 7.84249 31.9815 7.88643 31.8744C7.93038 31.7672 7.99516 31.6699 8.07704 31.588C8.15891 31.5062 8.25624 31.4414 8.36337 31.3974C8.4705 31.3535 8.58529 31.3313 8.70107 31.3321Z" fill="#F4F4F4"/>
<path fill-rule="evenodd" clip-rule="evenodd" d="M8.70094 24.5723H34.8279C35.0629 24.5723 35.2883 24.6656 35.4544 24.8318C35.6206 24.9979 35.7139 25.2233 35.7139 25.4583C35.7139 25.6932 35.6206 25.9186 35.4544 26.0848C35.2883 26.2509 35.0629 26.3443 34.8279 26.3443H8.70094C8.46596 26.3443 8.2406 26.2509 8.07444 26.0848C7.90829 25.9186 7.81494 25.6932 7.81494 25.4583C7.81494 25.2233 7.90829 24.9979 8.07444 24.8318C8.2406 24.6656 8.46596 24.5723 8.70094 24.5723Z" fill="#F4F4F4"/>
<path fill-rule="evenodd" clip-rule="evenodd" d="M8.7011 17.8057H34.8281C35.0648 17.8057 35.2918 17.8997 35.4592 18.0671C35.6266 18.2344 35.7206 18.4615 35.7206 18.6982C35.7206 18.9349 35.6266 19.1619 35.4592 19.3293C35.2918 19.4966 35.0648 19.5907 34.8281 19.5907H8.7011C8.46439 19.5907 8.23738 19.4966 8.07 19.3293C7.90262 19.1619 7.80859 18.9349 7.80859 18.6982C7.80859 18.4615 7.90262 18.2344 8.07 18.0671C8.23738 17.8997 8.46439 17.8057 8.7011 17.8057Z" fill="#F4F4F4"/>
<path fill-rule="evenodd" clip-rule="evenodd" d="M8.70094 11.0615H22.5869C22.8219 11.0615 23.0473 11.1549 23.2134 11.321C23.3796 11.4872 23.4729 11.7125 23.4729 11.9475C23.4729 12.1825 23.3796 12.4079 23.2134 12.574C23.0473 12.7402 22.8219 12.8335 22.5869 12.8335H8.70094C8.46596 12.8335 8.2406 12.7402 8.07444 12.574C7.90829 12.4079 7.81494 12.1825 7.81494 11.9475C7.81494 11.7125 7.90829 11.4872 8.07444 11.321C8.2406 11.1549 8.46596 11.0615 8.70094 11.0615Z" fill="#F4F4F4"/>
<path d="M48.298 14.2798L48.598 14.4048L48.975 13.5378C49.0202 13.4296 49.0866 13.3316 49.1701 13.2495C49.2537 13.1673 49.3528 13.1027 49.4617 13.0594C49.5706 13.0161 49.6871 12.9949 49.8042 12.9972C49.9214 12.9995 50.0369 13.0252 50.144 13.0728C50.3571 13.1667 50.525 13.3401 50.6118 13.5561C50.6987 13.7721 50.6977 14.0135 50.609 14.2288L50.232 15.1088L50.521 15.2348C51.0878 15.482 51.5345 15.9422 51.7648 16.5161C51.9952 17.0899 51.9906 17.7313 51.752 18.3018L51.539 18.7918L51.752 18.8798C52.4039 19.1697 52.9176 19.7014 53.185 20.3628C53.4473 21.0223 53.4383 21.7588 53.16 22.4118L50.546 28.4808L50.282 29.1098L50.006 29.7628C49.9643 29.8761 49.8999 29.9797 49.8168 30.0673C49.7338 30.1549 49.6337 30.2247 49.5228 30.2725C49.4119 30.3202 49.2925 30.3449 49.1717 30.345C49.051 30.3451 48.9315 30.3206 48.8205 30.2731C48.7095 30.2255 48.6093 30.1559 48.5261 30.0684C48.4429 29.9809 48.3783 29.8774 48.3364 29.7642C48.2944 29.651 48.276 29.5304 48.2821 29.4098C48.2882 29.2892 48.3188 29.1711 48.372 29.0628L48.648 28.4098L48.925 27.7948L51.525 21.7118C51.5735 21.6033 51.5996 21.4862 51.6016 21.3675C51.6037 21.2487 51.5817 21.1308 51.537 21.0208C51.4923 20.9093 51.426 20.8077 51.3419 20.7219C51.2578 20.6361 51.1576 20.5678 51.047 20.5208L50.833 20.4328L49.991 22.4058L43.481 19.5908L45.228 15.5188C45.4738 14.9477 45.9343 14.4962 46.51 14.2618V14.2698C46.7936 14.1537 47.0974 14.0951 47.4038 14.0973C47.7102 14.0995 48.0132 14.1626 48.295 14.2828M49.3 24.0098L42.476 39.8948L35.966 37.1048L42.778 21.2048L49.3 24.0098ZM41.651 41.4698L35.883 48.4318C35.7584 48.5713 35.5931 48.6682 35.4104 48.7088C35.2278 48.7493 35.037 48.7315 34.865 48.6578C34.691 48.587 34.5445 48.4619 34.4472 48.3012C34.3499 48.1405 34.3071 47.9527 34.325 47.7658L35.406 38.7808L41.651 41.4698Z" fill="#F4F4F4"/>
<path fill-rule="evenodd" clip-rule="evenodd" d="M8.70107 38.0811H31.0321C31.268 38.0831 31.4937 38.1778 31.6605 38.3446C31.8273 38.5115 31.922 38.7371 31.9241 38.9731C31.9233 39.0894 31.8996 39.2044 31.8543 39.3115C31.8091 39.4187 31.7431 39.5158 31.6603 39.5975C31.5774 39.6791 31.4793 39.7436 31.3715 39.7873C31.2637 39.831 31.1484 39.853 31.0321 39.8521H8.70107C8.58537 39.8529 8.47066 39.8307 8.3636 39.7868C8.25654 39.7429 8.15926 39.6782 8.0774 39.5965C7.99554 39.5147 7.93072 39.4175 7.88672 39.3105C7.84272 39.2034 7.82041 39.0888 7.82107 38.9731C7.82015 38.8567 7.8422 38.7412 7.88595 38.6334C7.9297 38.5255 7.99429 38.4274 8.07603 38.3445C8.15777 38.2617 8.25506 38.1957 8.36231 38.1505C8.46956 38.1053 8.58468 38.0817 8.70107 38.0811Z" fill="#F4F4F4"/>
<path d="M23.3912 49.1283C23.4292 49.1153 23.4541 49.1033 23.4911 49.0903C23.9335 48.9444 24.4073 48.9226 24.8612 49.0273C25.3585 49.1327 25.8057 49.403 26.1301 49.7943C26.4111 50.1477 26.6087 50.5599 26.7082 51.0003C27.439 50.8008 28.1888 50.6784 28.9452 50.6353C30.3637 50.5203 31.7807 50.8737 32.9792 51.6413C33.1395 51.7814 33.2414 51.9766 33.2648 52.1883C33.2881 52.3999 33.2311 52.6126 33.1051 52.7843C33.0176 52.9132 32.8996 53.0184 32.7616 53.0908C32.6236 53.1632 32.4699 53.2005 32.3141 53.1993C32.2219 53.2039 32.1303 53.182 32.0502 53.1363C31.1521 52.5679 30.0934 52.3074 29.0341 52.3943C28.0773 52.4726 27.1355 52.6798 26.2342 53.0103H26.2212L26.2092 53.0233C26.0754 53.0666 25.9332 53.0773 25.7945 53.0547C25.6557 53.032 25.5244 52.9765 25.4114 52.8929C25.2983 52.8093 25.2069 52.7 25.1446 52.574C25.0823 52.4479 25.0509 52.3089 25.0532 52.1683V52.1433C25.1032 50.4843 23.8722 50.2713 23.2312 51.4433C23.1398 51.6181 22.9919 51.7568 22.8115 51.8368C22.6312 51.9167 22.429 51.9331 22.2382 51.8833C22.0504 51.8319 21.8859 51.7179 21.7717 51.5602C21.6575 51.4026 21.6005 51.2107 21.6102 51.0163L21.6352 47.4973L21.4472 47.6483C20.2032 48.6783 19.2352 49.4703 20.2532 51.8703C20.3192 52.0147 20.3458 52.1741 20.3304 52.3322C20.3149 52.4902 20.2579 52.6414 20.1652 52.7703C20.0709 52.9009 19.9424 53.003 19.7938 53.0651C19.6452 53.1272 19.4823 53.147 19.3232 53.1223C19.1657 53.0966 19.0179 53.0296 18.8949 52.928C18.7719 52.8264 18.6781 52.694 18.6232 52.5443C17.1032 48.9373 18.4982 47.7813 20.3232 46.2853C20.8889 45.8467 21.4146 45.3588 21.8941 44.8273C21.9993 44.6629 22.1585 44.5403 22.3443 44.4806C22.5301 44.4209 22.7309 44.4279 22.9122 44.5003C23.0918 44.5707 23.2427 44.6993 23.3406 44.8655C23.4385 45.0318 23.4778 45.2261 23.4522 45.4173L23.4022 48.0173L23.3912 49.1283Z" fill="#F4F4F4"/>
</g>
</svg>
