<svg width="59" height="57" viewBox="0 0 59 57" fill="none" xmlns="http://www.w3.org/2000/svg">
<mask id="mask0_2378_1492" style="mask-type:luminance" maskUnits="userSpaceOnUse" x="0" y="0" width="59" height="57">
<path d="M58.8211 0.833984H0.694092V56.845H58.8211V0.833984Z" fill="white"/>
</mask>
<g mask="url(#mask0_2378_1492)">
<path d="M14.7252 29.8972C14.7275 26.9072 15.0687 23.9272 15.7422 21.0142C11.8406 19.7654 8.15719 17.9169 4.82419 15.5352C2.12547 19.8396 0.694092 24.8172 0.694092 29.8977C0.694092 34.9781 2.12547 39.9558 4.82419 44.2602C8.15719 41.8784 11.8406 40.0299 15.7422 38.7812C15.0687 35.8681 14.7275 32.8871 14.7252 29.8972Z" fill="#F4F4F4"/>
<path d="M16.2442 19.0682C17.9621 13.0513 21.0829 7.52769 25.3502 2.95117C21.5258 3.28969 17.8175 4.43933 14.4723 6.32349C11.1272 8.20766 8.22192 10.7831 5.9502 13.8782C9.09325 16.1288 12.5657 17.8796 16.2442 19.0682Z" fill="#F4F4F4"/>
<path d="M27.753 38.917C24.5167 38.9162 21.294 39.3343 18.165 40.161C19.9206 46.3222 23.221 51.9329 27.753 56.461C32.2851 51.9329 35.5854 46.3222 37.341 40.161C34.2121 39.3343 30.9893 38.9162 27.753 38.917Z" fill="#F4F4F4"/>
<path d="M39.2592 40.7266C37.5426 46.7428 34.424 52.2662 30.1592 56.8436C33.9833 56.5057 37.6914 55.3568 41.0366 53.4733C44.3818 51.5898 47.2872 49.0151 49.5592 45.9206C46.4144 43.6681 42.94 41.9161 39.2592 40.7266Z" fill="#F4F4F4"/>
<path d="M25.3502 56.8436C21.0834 52.2666 17.9627 46.7432 16.2442 40.7266C12.5655 41.9166 9.09311 43.6687 5.9502 45.9206C8.2221 49.0155 11.1274 51.5908 14.4725 53.4749C17.8177 55.359 21.5259 56.5088 25.3502 56.8476" fill="#F4F4F4"/>
<path d="M43.7891 0.833985C40.7713 0.83399 37.8234 1.74224 35.3289 3.44057C32.8344 5.13891 30.9087 7.54869 29.8025 10.3564C28.6963 13.1641 28.4607 16.2398 29.1264 19.1832C29.7921 22.1266 31.3283 24.8016 33.5351 26.86L43.7881 35.666L54.0741 26.834C56.2735 24.772 57.8021 22.0964 58.4614 19.1546C59.1207 16.2127 58.8802 13.1406 57.7713 10.3372C56.6623 7.53378 54.736 5.12856 52.2426 3.43387C49.7492 1.73919 46.8039 0.833349 43.7891 0.833985ZM43.7891 22.882C42.4016 22.882 41.0454 22.4706 39.8918 21.6997C38.7381 20.9289 37.839 19.8333 37.3081 18.5515C36.7771 17.2697 36.6382 15.8592 36.9089 14.4984C37.1795 13.1376 37.8477 11.8877 38.8287 10.9066C39.8098 9.92556 41.0597 9.25745 42.4205 8.98678C43.7813 8.7161 45.1918 8.85502 46.4736 9.38597C47.7554 9.91692 48.851 10.816 49.6218 11.9697C50.3927 13.1233 50.8041 14.4795 50.8041 15.867C50.8017 17.7267 50.0619 19.5097 48.7468 20.8247C47.4318 22.1398 45.6488 22.8796 43.7891 22.882Z" fill="#F4F4F4"/>
<path d="M26.751 15.8666C26.7523 13.487 27.2539 11.1343 28.2231 8.96103C29.1923 6.78779 30.6076 4.84257 32.377 3.25156C31.0159 3.01327 29.6386 2.87954 28.257 2.85156C23.4692 7.45709 19.987 13.2489 18.165 19.6376C21.2191 20.4423 24.3627 20.8576 27.521 20.8736C27.0144 19.2551 26.7548 17.5695 26.751 15.8736" fill="#F4F4F4"/>
<path d="M43.7891 38.3092L40.3801 35.3812C40.2181 36.5292 40.0211 37.6662 39.7651 38.7812C43.6655 40.0311 47.3479 41.8798 50.6801 44.2612C53.3863 39.9587 54.8192 34.978 54.8131 29.8952C54.8131 29.5492 54.7891 29.2082 54.7761 28.8652L43.7891 38.3092Z" fill="#F4F4F4"/>
<path d="M32.2291 28.3791C30.5666 26.8187 29.2269 24.947 28.2861 22.8701C28.1081 22.8701 27.9311 22.8811 27.7531 22.8811C24.3497 22.8836 20.9602 22.446 17.6691 21.5791C16.4156 27.056 16.4156 32.7452 17.6691 38.2221C24.279 36.481 31.2272 36.481 37.8371 38.2221C38.1641 36.7708 38.4061 35.3016 38.5621 33.8221L32.2291 28.3791Z" fill="#F4F4F4"/>
<path d="M43.7881 10.8564C42.797 10.8564 41.8282 11.1503 41.0041 11.701C40.1801 12.2516 39.5378 13.0342 39.1585 13.9498C38.7793 14.8655 38.68 15.873 38.8734 16.845C39.0667 17.8171 39.544 18.71 40.2448 19.4108C40.9456 20.1116 41.8385 20.5888 42.8105 20.7822C43.7825 20.9755 44.7901 20.8763 45.7057 20.497C46.6214 20.1177 47.404 19.4755 47.9546 18.6514C48.5052 17.8274 48.7991 16.8585 48.7991 15.8674C48.7975 14.5389 48.2691 13.2653 47.3297 12.3259C46.3903 11.3865 45.1166 10.858 43.7881 10.8564Z" fill="#F4F4F4"/>
</g>
</svg>
