<svg width="310" height="92" viewBox="0 0 310 92" fill="none" xmlns="http://www.w3.org/2000/svg">
<mask id="mask0_2430_85" style="mask-type:luminance" maskUnits="userSpaceOnUse" x="0" y="0" width="310" height="92">
<path d="M309.478 0H0.978516V91.407H309.478V0Z" fill="white"/>
</mask>
<g mask="url(#mask0_2430_85)">
<mask id="mask1_2430_85" style="mask-type:luminance" maskUnits="userSpaceOnUse" x="0" y="0" width="310" height="92">
<path d="M309.478 0H0.978516V91.407H309.478V0Z" fill="white"/>
</mask>
<g mask="url(#mask1_2430_85)">
<path d="M291.959 91.407H18.4975C13.8554 91.3933 9.40735 89.5431 6.12487 86.2607C2.84238 82.9782 0.992233 78.5301 0.978516 73.888L0.978516 17.519C0.992233 12.8769 2.84238 8.42883 6.12487 5.14635C9.40735 1.86387 13.8554 0.0137177 18.4975 0H291.959C296.601 0.0134541 301.049 1.86349 304.332 5.146C307.615 8.42851 309.465 12.8767 309.479 17.519V73.888C309.465 78.5303 307.615 82.9785 304.332 86.261C301.049 89.5435 296.601 91.3935 291.959 91.407Z" fill="black"/>
<path d="M109.339 23.4085C109.38 24.2468 109.251 25.0849 108.959 25.8718C108.667 26.6586 108.217 27.3778 107.638 27.9855C106.989 28.659 106.204 29.1878 105.336 29.5373C104.468 29.8867 103.536 30.049 102.601 30.0135C100.702 30.0135 98.8802 29.2589 97.5371 27.9158C96.194 26.5726 95.4395 24.751 95.4395 22.8515C95.4395 20.952 96.194 19.1303 97.5371 17.7872C98.8802 16.444 100.702 15.6895 102.601 15.6895C103.569 15.6867 104.527 15.8824 105.415 16.2645C106.241 16.5991 106.976 17.124 107.56 17.7965L106.355 19.0025C105.896 18.4619 105.319 18.034 104.668 17.7519C104.017 17.4698 103.31 17.341 102.601 17.3755C101.706 17.3805 100.826 17.6048 100.038 18.0287C99.2498 18.4527 98.5775 19.0633 98.0798 19.8073C97.5822 20.5512 97.2745 21.4058 97.1836 22.2962C97.0927 23.1866 97.2214 24.0857 97.5585 24.9149C97.8955 25.744 98.4306 26.4779 99.1169 27.0524C99.8033 27.6269 100.62 28.0244 101.495 28.2101C102.371 28.3959 103.279 28.3642 104.139 28.118C105 27.8717 105.787 27.4183 106.432 26.7975C107.135 26.0395 107.543 25.0539 107.58 24.0205H102.601V22.3745H109.245C109.31 22.7158 109.343 23.0622 109.345 23.4095" fill="white"/>
<path d="M109.339 23.4085C109.38 24.2468 109.251 25.0849 108.959 25.8718C108.667 26.6586 108.217 27.3778 107.638 27.9855C106.989 28.659 106.204 29.1878 105.336 29.5373C104.468 29.8867 103.536 30.049 102.601 30.0135C100.702 30.0135 98.8802 29.2589 97.5371 27.9158C96.194 26.5726 95.4395 24.751 95.4395 22.8515C95.4395 20.952 96.194 19.1303 97.5371 17.7872C98.8802 16.444 100.702 15.6895 102.601 15.6895C103.569 15.6867 104.527 15.8824 105.415 16.2645C106.241 16.5991 106.976 17.124 107.56 17.7965L106.355 19.0025C105.896 18.4619 105.319 18.034 104.668 17.7519C104.017 17.4698 103.31 17.341 102.601 17.3755C101.706 17.3805 100.826 17.6048 100.038 18.0287C99.2498 18.4527 98.5775 19.0633 98.0798 19.8073C97.5822 20.5512 97.2745 21.4058 97.1836 22.2962C97.0927 23.1866 97.2214 24.0857 97.5585 24.9149C97.8955 25.744 98.4306 26.4779 99.1169 27.0524C99.8033 27.6269 100.62 28.0244 101.495 28.2101C102.371 28.3959 103.279 28.3642 104.139 28.118C105 27.8717 105.787 27.4183 106.432 26.7975C107.135 26.0395 107.543 25.0539 107.58 24.0205H102.601V22.3745H109.245C109.307 22.7157 109.338 23.0617 109.339 23.4085Z" stroke="white" stroke-width="2.244" stroke-miterlimit="10"/>
<path d="M119.871 17.6811H113.627V22.0281H119.257V23.6751H113.627V28.0221H119.871V29.7071H111.871V15.9961H119.871V17.6811Z" fill="white"/>
<path d="M119.871 17.6811H113.627V22.0281H119.257V23.6751H113.627V28.0221H119.871V29.7071H111.871V15.9961H119.871V17.6811Z" stroke="white" stroke-width="2.244" stroke-miterlimit="10"/>
<path d="M127.3 29.7071H125.537V17.6811H121.708V15.9961H131.13V17.6811H127.3V29.7071Z" fill="white"/>
<path d="M127.3 29.7071H125.537V17.6811H121.708V15.9961H131.13V17.6811H127.3V29.7071Z" stroke="white" stroke-width="2.244" stroke-miterlimit="10"/>
<path d="M139.708 15.9961H137.947V29.7071H139.708V15.9961Z" fill="white"/>
<path d="M139.708 15.9961H137.947V29.7071H139.708V15.9961Z" stroke="white" stroke-width="2.244" stroke-miterlimit="10"/>
<path d="M147.524 29.7071H145.761V17.6811H141.932V15.9961H151.354V17.6811H147.525L147.524 29.7071Z" fill="white"/>
<path d="M147.524 29.7071H145.761V17.6811H141.932V15.9961H151.354V17.6811H147.525L147.524 29.7071Z" stroke="white" stroke-width="2.244" stroke-miterlimit="10"/>
<path d="M169.189 27.9361C167.854 29.2667 166.047 30.0138 164.162 30.0138C162.278 30.0138 160.47 29.2667 159.136 27.9361C157.839 26.5613 157.116 24.7427 157.116 22.8526C157.116 20.9625 157.839 19.1439 159.136 17.7691C159.795 17.1093 160.579 16.5861 161.441 16.2294C162.303 15.8728 163.227 15.6896 164.16 15.6904C165.093 15.6913 166.016 15.8761 166.878 16.2343C167.739 16.5926 168.521 17.1171 169.18 17.7781C170.481 19.1486 171.207 20.9657 171.208 22.8553C171.21 24.7449 170.487 26.5633 169.189 27.9361ZM160.437 26.7881C161.425 27.7747 162.765 28.3289 164.161 28.3289C165.558 28.3289 166.897 27.7747 167.886 26.7881C168.866 25.712 169.41 24.3085 169.41 22.8526C169.41 21.3967 168.866 19.9932 167.886 18.9171C166.897 17.9305 165.558 17.3763 164.161 17.3763C162.765 17.3763 161.425 17.9305 160.437 18.9171C159.457 19.9939 158.915 21.3971 158.915 22.8526C158.915 24.3081 159.457 25.7113 160.437 26.7881Z" fill="white"/>
<path d="M169.189 27.9361C167.854 29.2667 166.047 30.0138 164.162 30.0138C162.278 30.0138 160.47 29.2667 159.136 27.9361C157.839 26.5613 157.116 24.7427 157.116 22.8526C157.116 20.9625 157.839 19.1439 159.136 17.7691C159.795 17.1093 160.579 16.5861 161.441 16.2294C162.303 15.8728 163.227 15.6896 164.16 15.6904C165.093 15.6913 166.016 15.8761 166.878 16.2343C167.739 16.5926 168.521 17.1171 169.18 17.7781C170.481 19.1486 171.207 20.9657 171.208 22.8553C171.21 24.7449 170.487 26.5633 169.189 27.9361ZM160.437 26.7881C161.425 27.7747 162.765 28.3289 164.161 28.3289C165.558 28.3289 166.897 27.7747 167.886 26.7881C168.866 25.712 169.41 24.3085 169.41 22.8526C169.41 21.3967 168.866 19.9932 167.886 18.9171C166.897 17.9305 165.558 17.3763 164.161 17.3763C162.765 17.3763 161.425 17.9305 160.437 18.9171C159.457 19.9939 158.915 21.3971 158.915 22.8526C158.915 24.3081 159.457 25.7113 160.437 26.7881Z" stroke="white" stroke-width="2.244" stroke-miterlimit="10"/>
<path d="M173.682 29.7071V15.9961H175.827L182.49 26.6621H182.567L182.49 24.0201V15.9961H184.254V29.7071H182.415L175.443 18.5241H175.367L175.443 21.1661V29.7061L173.682 29.7071Z" fill="white"/>
<path d="M173.682 29.7071V15.9961H175.827L182.49 26.6621H182.567L182.49 24.0201V15.9961H184.254V29.7071H182.415L175.443 18.5241H175.367L175.443 21.1661V29.7061L173.682 29.7071Z" stroke="white" stroke-width="2.244" stroke-miterlimit="10"/>
<path d="M156.681 49.7097C154.76 49.717 152.885 50.2933 151.291 51.3657C149.698 52.438 148.458 53.9584 147.728 55.735C146.998 57.5115 146.811 59.4646 147.19 61.3474C147.569 63.2303 148.498 64.9586 149.858 66.3141C151.219 67.6696 152.951 68.5916 154.835 68.9636C156.719 69.3357 158.672 69.141 160.445 68.4044C162.219 67.6677 163.735 66.4219 164.801 64.8245C165.867 63.227 166.437 61.3494 166.437 59.4287C166.456 58.1441 166.216 56.8688 165.732 55.6787C165.248 54.4885 164.529 53.4079 163.619 52.5012C162.709 51.5944 161.625 50.88 160.433 50.4005C159.241 49.9209 157.965 49.686 156.681 49.7097ZM156.681 65.3198C155.498 65.4041 154.317 65.1304 153.292 64.5343C152.267 63.9382 151.445 63.0473 150.934 61.9775C150.422 60.9078 150.244 59.7089 150.423 58.5368C150.603 57.3646 151.131 56.2737 151.939 55.4058C152.747 54.538 153.797 53.9335 154.954 53.6711C156.11 53.4087 157.319 53.5005 158.422 53.9346C159.526 54.3686 160.473 55.1249 161.141 56.1048C161.808 57.0847 162.165 58.243 162.166 59.4287C162.201 60.1779 162.087 60.9267 161.829 61.6311C161.572 62.3354 161.176 62.9811 160.664 63.53C160.153 64.079 159.538 64.5201 158.853 64.8275C158.169 65.1348 157.43 65.3022 156.681 65.3198ZM135.403 49.7097C133.482 49.717 131.606 50.2933 130.013 51.3657C128.42 52.438 127.18 53.9584 126.45 55.735C125.72 57.5115 125.533 59.4646 125.912 61.3474C126.291 63.2303 127.22 64.9586 128.58 66.3141C129.941 67.6696 131.673 68.5916 133.557 68.9636C135.441 69.3357 137.394 69.141 139.167 68.4044C140.941 67.6677 142.457 66.4219 143.523 64.8245C144.59 63.227 145.159 61.3494 145.159 59.4287C145.177 58.1441 144.938 56.8688 144.454 55.6787C143.97 54.4885 143.251 53.4079 142.341 52.5012C141.431 51.5944 140.347 50.88 139.155 50.4005C137.963 49.9209 136.687 49.686 135.403 49.7097ZM135.403 65.3198C134.22 65.4041 133.039 65.1304 132.014 64.5343C130.989 63.9382 130.167 63.0473 129.656 61.9775C129.144 60.9078 128.966 59.7089 129.146 58.5368C129.325 57.3646 129.853 56.2737 130.661 55.4058C131.469 54.538 132.519 53.9335 133.676 53.6711C134.832 53.4087 136.041 53.5005 137.144 53.9346C138.248 54.3686 139.195 55.1249 139.863 56.1048C140.53 57.0847 140.887 58.243 140.888 59.4287C140.924 60.1779 140.809 60.9267 140.551 61.6311C140.294 62.3354 139.897 62.9811 139.386 63.53C138.875 64.079 138.259 64.5201 137.575 64.8275C136.891 65.1348 136.152 65.3022 135.403 65.3198ZM110.086 52.6917V56.8098H119.953C119.81 58.7437 119.019 60.5729 117.707 62.0007C116.718 63.0087 115.529 63.7982 114.216 64.3182C112.904 64.8382 111.496 65.0771 110.086 65.0197C107.202 64.9808 104.449 63.8078 102.423 61.7546C100.397 59.7014 99.2617 56.9331 99.2617 54.0488C99.2617 51.1645 100.397 48.3961 102.423 46.3429C104.449 44.2897 107.202 43.1167 110.086 43.0778C112.856 43.0415 115.528 44.0998 117.523 46.0228L120.431 43.1148C119.07 41.7677 117.454 40.7059 115.678 39.9916C113.901 39.2772 112 38.9247 110.086 38.9547C108.069 38.9003 106.062 39.2505 104.183 39.9846C102.304 40.7187 100.591 41.8218 99.1459 43.2288C97.7003 44.6359 96.5514 46.3183 95.7668 48.1767C94.9823 50.0352 94.5781 52.032 94.5781 54.0493C94.5781 56.0665 94.9823 58.0633 95.7668 59.9218C96.5514 61.7802 97.7003 63.4627 99.1459 64.8697C100.591 66.2767 102.304 67.3799 104.183 68.114C106.062 68.848 108.069 69.1982 110.086 69.1437C112.04 69.2247 113.99 68.8891 115.805 68.1591C117.621 67.4292 119.26 66.3215 120.615 64.9097C123.019 62.2848 124.301 58.8229 124.186 55.2648C124.195 54.4007 124.121 53.5376 123.965 52.6878L110.086 52.6917ZM213.624 55.8917C212.814 53.7197 210.347 49.7067 205.304 49.7067C200.297 49.7067 196.137 53.6457 196.137 59.4257C196.109 60.7036 196.338 61.974 196.812 63.161C197.286 64.3481 197.994 65.4274 198.895 66.3346C199.795 67.2418 200.869 67.9582 202.052 68.441C203.236 68.9239 204.505 69.1632 205.783 69.1447C207.384 69.1538 208.962 68.7651 210.376 68.0133C211.79 67.2615 212.995 66.1704 213.883 64.8378L210.57 62.6287C210.073 63.453 209.371 64.1341 208.532 64.6052C207.693 65.0762 206.746 65.3211 205.784 65.3157C204.793 65.3537 203.815 65.0933 202.974 64.5681C202.134 64.043 201.471 63.2774 201.071 62.3707L214.071 56.9957L213.624 55.8917ZM200.371 59.1317C200.325 58.4243 200.421 57.7149 200.652 57.0449C200.884 56.375 201.247 55.758 201.72 55.23C202.193 54.702 202.767 54.2737 203.407 53.9701C204.048 53.6665 204.742 53.4936 205.451 53.4617C206.188 53.4133 206.923 53.583 207.565 53.9497C208.207 54.3164 208.726 54.8638 209.059 55.5238L200.371 59.1317ZM189.805 68.5557H194.076V39.9868H189.803L189.805 68.5557ZM182.81 51.8787H182.663C182.013 51.1734 181.221 50.6147 180.339 50.2402C179.456 49.8656 178.504 49.6837 177.546 49.7067C175.04 49.8146 172.673 50.8857 170.939 52.6965C169.204 54.5074 168.236 56.9181 168.236 59.4257C168.236 61.9333 169.204 64.3441 170.939 66.155C172.673 67.9658 175.04 69.0369 177.546 69.1447C178.508 69.1703 179.464 68.9859 180.348 68.6044C181.231 68.223 182.021 67.6535 182.663 66.9357H182.81V68.3358C182.81 72.0538 180.822 74.0418 177.619 74.0418C176.55 74.0169 175.514 73.6743 174.641 73.0579C173.769 72.4415 173.099 71.5791 172.719 70.5808L169 72.1268C169.701 73.833 170.895 75.2911 172.43 76.3143C173.965 77.3374 175.77 77.8791 177.615 77.8698C182.622 77.8698 186.856 74.9247 186.856 67.7457V50.2947H182.806L182.81 51.8787ZM177.91 65.3167C176.434 65.1905 175.06 64.5154 174.058 63.4246C173.057 62.3339 172.501 60.907 172.501 59.4263C172.501 57.9455 173.057 56.5187 174.058 55.4279C175.06 54.3372 176.434 53.6619 177.91 53.5358C180.818 53.5358 183.101 56.0358 183.101 59.4628C183.101 62.8498 180.819 65.3167 177.91 65.3167ZM233.625 39.9888H223.403V68.5568H227.666V57.7318H233.62C238.347 57.7318 242.992 54.3097 242.992 48.8597C242.992 43.4097 238.347 39.9877 233.62 39.9877M233.73 53.7567H227.666V43.9638H233.73C234.388 43.9388 235.045 44.0471 235.661 44.2819C236.277 44.5168 236.839 44.8734 237.313 45.3306C237.788 45.7877 238.166 46.3359 238.424 46.9424C238.682 47.5489 238.815 48.2012 238.815 48.8602C238.815 49.5193 238.682 50.1716 238.424 50.7781C238.166 51.3846 237.788 51.9328 237.313 52.39C236.839 52.8471 236.277 53.2038 235.661 53.4386C235.045 53.6735 234.388 53.7816 233.73 53.7567ZM260.082 49.6567C256.995 49.6567 253.797 51.0168 252.474 54.0308L256.26 55.6107C256.635 54.9189 257.203 54.3517 257.896 53.9786C258.589 53.6056 259.376 53.443 260.16 53.5107C262.365 53.5107 264.607 54.8337 264.644 57.1857V57.4797C263.274 56.7532 261.747 56.3754 260.197 56.3798C256.118 56.3798 251.964 58.6218 251.964 62.8118C251.964 66.6338 255.308 69.0967 259.057 69.0967C260.13 69.1601 261.201 68.9344 262.158 68.4431C263.115 67.9519 263.922 67.2131 264.497 66.3037H264.644V68.5098H268.76V57.5548C268.76 52.4828 264.974 49.6547 260.086 49.6547M259.571 65.3118C258.171 65.3118 256.227 64.6117 256.227 62.8857C256.227 60.6807 258.653 59.8347 260.748 59.8347C262.11 59.798 263.457 60.1282 264.648 60.7908C264.491 62.03 263.891 63.1705 262.959 64.0017C262.026 64.8328 260.825 65.2982 259.576 65.3118M283.76 50.2797L278.872 62.6658H278.725L273.653 50.2797H269.059L276.667 67.5908L272.33 77.2197H276.777L288.501 50.2797H283.76ZM245.353 68.5568H249.616V39.9877H245.353V68.5568Z" fill="white"/>
</g>
<mask id="mask2_2430_85" style="mask-type:luminance" maskUnits="userSpaceOnUse" x="23" y="17" width="29" height="58">
<path d="M24.7575 17.2236C24.0497 18.1384 23.6979 19.2791 23.7675 20.4336V70.9726C23.6976 72.1273 24.0495 73.2679 24.7575 74.1826L24.9155 74.3476L51.4155 46.0366V45.3686L24.9155 17.0566L24.7575 17.2236Z" fill="white"/>
</mask>
<g mask="url(#mask2_2430_85)">
<path d="M37.5923 3.23483L-4.87793 45.7051L37.5923 88.1753L80.0626 45.7051L37.5923 3.23483Z" fill="url(#paint0_linear_2430_85)"/>
</g>
<mask id="mask3_2430_85" style="mask-type:luminance" maskUnits="userSpaceOnUse" x="51" y="35" width="23" height="21">
<path d="M51.418 45.3716V46.0396L60.251 55.4806L60.451 55.3596L70.917 49.0066C73.907 47.1906 73.907 44.2226 70.917 42.4066L60.451 36.0536L60.251 35.9326L51.418 45.3716Z" fill="white"/>
</mask>
<g mask="url(#mask3_2430_85)">
<path d="M73.908 35.9326H51.418V55.4806H73.908V35.9326Z" fill="url(#paint1_linear_2430_85)"/>
</g>
<mask id="mask4_2430_85" style="mask-type:luminance" maskUnits="userSpaceOnUse" x="24" y="45" width="37" height="31">
<path d="M24.7568 74.1861C25.7428 75.3011 27.3688 75.4391 29.2018 74.3261L60.4568 55.3581L51.4218 45.7061L24.7568 74.1861Z" fill="white"/>
</mask>
<g mask="url(#mask4_2430_85)">
<path d="M42.6052 27.8587L9.8916 60.5723L42.6052 93.2859L75.3188 60.5723L42.6052 27.8587Z" fill="url(#paint2_linear_2430_85)"/>
</g>
<mask id="mask5_2430_85" style="mask-type:luminance" maskUnits="userSpaceOnUse" x="24" y="16" width="37" height="30">
<path d="M24.7568 17.2248L51.4168 45.7049L60.4568 36.0528L29.2079 17.0848C28.4928 16.6149 27.6629 16.3493 26.8079 16.3169C26.4209 16.3097 26.0371 16.3873 25.6833 16.5442C25.3296 16.701 25.0144 16.9333 24.7599 17.2248" fill="white"/>
</mask>
<g mask="url(#mask5_2430_85)">
<path d="M42.6052 -1.53102L10.0635 31.0107L42.6052 63.5525L75.147 31.0107L42.6052 -1.53102Z" fill="url(#paint3_linear_2430_85)"/>
</g>
<mask id="mask6_2430_85" style="mask-type:luminance" maskUnits="userSpaceOnUse" x="0" y="0" width="310" height="92">
<path d="M309.478 0H0.978516V91.407H309.478V0Z" fill="white"/>
</mask>
<g mask="url(#mask6_2430_85)">
<g opacity="0.2">
<mask id="mask7_2430_85" style="mask-type:luminance" maskUnits="userSpaceOnUse" x="24" y="55" width="37" height="21">
<path d="M60.4518 55.1465H24.7578V75.0945H60.4518V55.1465Z" fill="white"/>
</mask>
<g mask="url(#mask7_2430_85)">
<path d="M60.2567 55.1465L29.2067 73.9935C27.4697 75.0475 25.9167 74.9775 24.9207 74.0185L24.7617 74.1885L24.9197 74.3535C25.9197 75.3135 27.4687 75.3845 29.2057 74.3295L60.4567 55.3595L60.2567 55.1465Z" fill="black"/>
</g>
</g>
<g opacity="0.12">
<mask id="mask8_2430_85" style="mask-type:luminance" maskUnits="userSpaceOnUse" x="23" y="70" width="2" height="5">
<path d="M24.9166 70.6436H23.7676V74.1876H24.9166V70.6436Z" fill="white"/>
</mask>
<g mask="url(#mask8_2430_85)">
<path d="M24.7575 73.8546C24.0495 72.9394 23.6977 71.7985 23.7675 70.6436V70.9775C23.6977 72.1324 24.0495 73.2734 24.7575 74.1885L24.9165 74.0186L24.7575 73.8546Z" fill="black"/>
</g>
</g>
<g opacity="0.12">
<mask id="mask9_2430_85" style="mask-type:luminance" maskUnits="userSpaceOnUse" x="60" y="45" width="14" height="11">
<path d="M73.1609 45.707H60.2529V55.359H73.1609V45.707Z" fill="white"/>
</mask>
<g mask="url(#mask9_2430_85)">
<path d="M70.9179 48.6721L60.2529 55.1461L60.4529 55.359L70.9189 49.006C71.548 48.6992 72.0858 48.2332 72.4791 47.6544C72.8724 47.0755 73.1074 46.4038 73.1609 45.7061C73.0382 46.3386 72.7723 46.9346 72.3837 47.4485C71.9951 47.9624 71.4941 48.3806 70.9189 48.671" fill="black"/>
</g>
</g>
<g opacity="0.25">
<mask id="mask10_2430_85" style="mask-type:luminance" maskUnits="userSpaceOnUse" x="23" y="16" width="51" height="30">
<path d="M73.1606 16.3184H23.7676V45.7064H73.1606V16.3184Z" fill="white"/>
</mask>
<g mask="url(#mask10_2430_85)">
<path d="M29.2026 17.4217L70.9176 42.7417C71.493 43.032 71.9942 43.4503 72.3828 43.9645C72.7715 44.4786 73.0372 45.0749 73.1596 45.7077C73.1064 45.0098 72.8714 44.338 72.4781 43.7591C72.0848 43.1801 71.5468 42.7142 70.9176 42.4077L29.2026 17.0877C26.2126 15.2727 23.7676 16.7807 23.7676 20.4387V20.7727C23.7676 17.1147 26.2136 15.6077 29.2026 17.4217Z" fill="white"/>
</g>
</g>
</g>
</g>
<defs>
<linearGradient id="paint0_linear_2430_85" x1="44.0053" y1="103.932" x2="44.0903" y2="103.847" gradientUnits="userSpaceOnUse">
<stop stop-color="#00A0FF"/>
<stop offset="0.007" stop-color="#00A1FF"/>
<stop offset="0.26" stop-color="#00BEFF"/>
<stop offset="0.512" stop-color="#00D2FF"/>
<stop offset="0.76" stop-color="#00DFFF"/>
<stop offset="1" stop-color="#00E3FF"/>
</linearGradient>
<linearGradient id="paint1_linear_2430_85" x1="0.972899" y1="91.4098" x2="1.06286" y2="91.4098" gradientUnits="userSpaceOnUse">
<stop stop-color="#FFE000"/>
<stop offset="0.409" stop-color="#FFBD00"/>
<stop offset="0.775" stop-color="#FFA500"/>
<stop offset="1" stop-color="#FF9C00"/>
</linearGradient>
<linearGradient id="paint2_linear_2430_85" x1="34.9829" y1="111.834" x2="35.0484" y2="111.769" gradientUnits="userSpaceOnUse">
<stop stop-color="#FF3A44"/>
<stop offset="1" stop-color="#C31162"/>
</linearGradient>
<linearGradient id="paint3_linear_2430_85" x1="55.8497" y1="103.156" x2="55.9148" y2="103.091" gradientUnits="userSpaceOnUse">
<stop stop-color="#32A071"/>
<stop offset="0.068" stop-color="#2DA771"/>
<stop offset="0.476" stop-color="#15CF74"/>
<stop offset="0.801" stop-color="#06E775"/>
<stop offset="1" stop-color="#00F076"/>
</linearGradient>
</defs>
</svg>
