<svg width="33" height="36" viewBox="0 0 33 36" fill="none" xmlns="http://www.w3.org/2000/svg">
<mask id="mask0_2_1571" style="mask-type:luminance" maskUnits="userSpaceOnUse" x="0" y="0" width="33" height="36">
<path d="M32.63 0.27002H0.969971V35.27H32.63V0.27002Z" fill="white"/>
</mask>
<g mask="url(#mask0_2_1571)">
<path d="M32.614 33.824C32.604 33.62 32.589 33.416 32.569 33.212C32.549 33.008 32.5236 32.8053 32.493 32.604C32.463 32.404 32.428 32.204 32.388 32.004C32.348 31.804 32.303 31.604 32.253 31.404C32.2036 31.204 32.149 31.007 32.089 30.813C32.029 30.619 31.9646 30.425 31.896 30.231C31.8293 30.0384 31.7556 29.8477 31.675 29.659C31.5943 29.4703 31.5113 29.2834 31.426 29.098C31.3386 28.9134 31.2466 28.7307 31.15 28.55C31.0533 28.3694 30.9533 28.1914 30.85 28.016C30.7446 27.8407 30.6353 27.668 30.522 27.498C30.4086 27.328 30.291 27.1613 30.169 26.998C30.047 26.834 29.9213 26.673 29.792 26.515C29.6626 26.357 29.5293 26.2023 29.392 26.051C29.2546 25.899 29.1136 25.751 28.969 25.607C28.8243 25.463 28.6763 25.322 28.525 25.184C28.3736 25.0467 28.219 24.9133 28.061 24.784C27.903 24.6547 27.7393 24.528 27.57 24.404C27.4053 24.282 27.2386 24.1643 27.07 24.051C26.9013 23.9377 26.7286 23.8284 26.552 23.723C26.3766 23.6177 26.199 23.5177 26.019 23.423C25.839 23.3283 25.6563 23.2363 25.471 23.147C25.2863 23.059 25.0996 22.976 24.911 22.898C24.7223 22.82 24.5316 22.7463 24.339 22.677C24.1463 22.6103 23.9523 22.546 23.757 22.484C23.5616 22.422 23.3646 22.3673 23.166 22.32C22.966 22.27 22.766 22.225 22.566 22.185C22.366 22.145 22.166 22.11 21.966 22.08C21.766 22.05 21.563 22.0247 21.357 22.004C21.151 21.9833 20.947 21.968 20.745 21.958C20.541 21.948 20.3366 21.9427 20.132 21.942H13.47C13.266 21.942 13.0616 21.9473 12.857 21.958C12.6523 21.9687 12.4486 21.984 12.246 22.004C12.046 22.024 11.843 22.0494 11.637 22.08C11.431 22.1107 11.231 22.1457 11.037 22.185C10.837 22.225 10.637 22.27 10.437 22.32C10.237 22.37 10.04 22.4247 9.84597 22.484C9.65064 22.5433 9.45664 22.6077 9.26397 22.677C9.0713 22.7463 8.88064 22.82 8.69197 22.898C8.5033 22.976 8.3163 23.059 8.13097 23.147C7.94564 23.235 7.7633 23.327 7.58397 23.423C7.4033 23.5197 7.22564 23.6197 7.05097 23.723C6.8763 23.8264 6.70364 23.9357 6.53297 24.051C6.36297 24.165 6.1963 24.2827 6.03297 24.404C5.86964 24.5254 5.70864 24.6513 5.54997 24.782C5.39197 24.9113 5.2373 25.0447 5.08597 25.182C4.93464 25.3193 4.78664 25.4603 4.64197 25.605C4.4973 25.7497 4.3563 25.8977 4.21897 26.049C4.08164 26.2003 3.9483 26.355 3.81897 26.513C3.68897 26.671 3.5633 26.832 3.44197 26.996C3.32064 27.16 3.20297 27.3267 3.08897 27.496C2.97564 27.666 2.8663 27.8387 2.76097 28.014C2.65564 28.1893 2.55564 28.3673 2.46097 28.548C2.3643 28.728 2.2723 28.9107 2.18497 29.096C2.09764 29.2813 2.01464 29.4683 1.93597 29.657C1.8573 29.8457 1.78364 30.0363 1.71497 30.229C1.6463 30.4217 1.58197 30.6157 1.52197 30.811C1.46264 31.007 1.40797 31.204 1.35797 31.402C1.30797 31.6 1.26297 31.8 1.22297 32.002C1.18297 32.202 1.14797 32.402 1.11797 32.602C1.08797 32.802 1.06264 33.0047 1.04197 33.21C1.02197 33.4134 1.00664 33.6174 0.995971 33.822C0.985304 34.0267 0.976637 34.2317 0.969971 34.437C0.969994 34.4917 0.975353 34.5463 0.985971 34.6C0.997006 34.6534 1.01308 34.7056 1.03397 34.756C1.0549 34.8064 1.08069 34.8546 1.11097 34.9C1.14027 34.9451 1.17375 34.9872 1.21097 35.026C1.36724 35.1821 1.57907 35.2699 1.79997 35.27H31.797C31.9064 35.27 32.0148 35.2486 32.116 35.207C32.1664 35.1861 32.2146 35.1603 32.26 35.13C32.3051 35.1009 32.3473 35.0674 32.386 35.03C32.4234 34.9914 32.4569 34.9492 32.486 34.904C32.5467 34.8132 32.5889 34.7112 32.61 34.604C32.6207 34.5503 32.6261 34.4957 32.626 34.441C32.626 34.2363 32.6206 34.032 32.61 33.828" fill="#F2BD2C"/>
<path d="M7.67896 10.335C7.69363 10.4844 7.71196 10.6334 7.73396 10.782C7.75596 10.9307 7.78163 11.0784 7.81097 11.225C7.8403 11.3724 7.87363 11.5187 7.91096 11.664C7.9483 11.8094 7.98829 11.9537 8.03096 12.097C8.07496 12.241 8.12197 12.3837 8.17197 12.525C8.22197 12.6664 8.27596 12.8064 8.33396 12.945C8.39129 13.0837 8.45196 13.2207 8.51596 13.356C8.57996 13.4914 8.64663 13.6247 8.71597 13.756C8.78663 13.8894 8.86063 14.0197 8.93797 14.147C9.0153 14.2744 9.09563 14.401 9.17896 14.527C9.2623 14.6517 9.34863 14.7744 9.43797 14.895C9.5273 15.0157 9.61963 15.134 9.71497 15.25C9.8103 15.366 9.9083 15.4797 10.009 15.591C10.1096 15.7024 10.213 15.811 10.319 15.917C10.425 16.023 10.5336 16.1264 10.645 16.227C10.7563 16.3277 10.87 16.4257 10.986 16.521C11.102 16.6164 11.2203 16.7087 11.341 16.798C11.4616 16.8874 11.5843 16.9737 11.709 17.057C11.8336 17.1404 11.9603 17.2207 12.089 17.298C12.2176 17.3754 12.348 17.4494 12.48 17.52C12.6133 17.5907 12.7466 17.6574 12.88 17.72C13.0133 17.7827 13.1503 17.8434 13.291 17.902C13.4296 17.9594 13.5696 18.0134 13.711 18.064C13.8523 18.1147 13.9946 18.1617 14.138 18.205C14.2813 18.249 14.4256 18.289 14.571 18.325C14.7163 18.361 14.8626 18.3944 15.01 18.425C15.1566 18.4544 15.3043 18.48 15.453 18.502C15.6016 18.524 15.7503 18.5424 15.899 18.557C16.0483 18.5717 16.198 18.5827 16.348 18.59C16.498 18.5974 16.648 18.601 16.798 18.601C16.948 18.601 17.098 18.5974 17.248 18.59C17.398 18.5827 17.5476 18.5717 17.697 18.557C17.8463 18.5424 17.9953 18.524 18.144 18.502C18.2926 18.48 18.4403 18.4544 18.587 18.425C18.7343 18.3957 18.8806 18.3624 19.026 18.325C19.1713 18.2877 19.316 18.2477 19.46 18.205C19.6033 18.1617 19.7456 18.1147 19.887 18.064C20.0283 18.0134 20.1683 17.9594 20.307 17.902C20.4456 17.8447 20.5826 17.784 20.718 17.72C20.8533 17.656 20.9866 17.5894 21.118 17.52C21.2513 17.4494 21.3816 17.3754 21.509 17.298C21.6363 17.2207 21.763 17.1404 21.889 17.057C22.0136 16.9737 22.1363 16.8874 22.257 16.798C22.3776 16.7087 22.4956 16.6164 22.611 16.521C22.727 16.4264 22.8406 16.3284 22.952 16.227C23.0633 16.1257 23.172 16.0224 23.278 15.917C23.384 15.811 23.4873 15.7024 23.588 15.591C23.6886 15.4797 23.7866 15.366 23.882 15.25C23.9773 15.134 24.0696 15.0157 24.159 14.895C24.2483 14.7744 24.3346 14.6517 24.418 14.527C24.5013 14.4024 24.5816 14.2757 24.659 14.147C24.7363 14.0184 24.8103 13.888 24.881 13.756C24.9516 13.6227 25.0183 13.4894 25.081 13.356C25.1436 13.2227 25.2043 13.0857 25.263 12.945C25.3203 12.8064 25.3743 12.6664 25.425 12.525C25.4756 12.3837 25.5226 12.241 25.566 12.097C25.61 11.9537 25.65 11.8094 25.686 11.664C25.722 11.5187 25.7553 11.3724 25.786 11.225C25.8153 11.0784 25.841 10.9307 25.863 10.782C25.885 10.6334 25.9033 10.4844 25.918 10.335C25.9326 10.1857 25.9436 10.036 25.951 9.88602C25.9583 9.73602 25.962 9.58602 25.962 9.43602C25.962 9.28602 25.9583 9.13602 25.951 8.98602C25.9436 8.83602 25.9326 8.68635 25.918 8.53702C25.9033 8.38769 25.885 8.23869 25.863 8.09002C25.841 7.94135 25.8153 7.79369 25.786 7.64702C25.7566 7.50035 25.7233 7.35402 25.686 7.20802C25.6486 7.06202 25.6086 6.91735 25.566 6.77402C25.5226 6.63069 25.4756 6.48835 25.425 6.34702C25.3743 6.20569 25.3203 6.06569 25.263 5.92702C25.2056 5.78835 25.145 5.65135 25.081 5.51602C25.017 5.38069 24.9503 5.24735 24.881 5.11602C24.8103 4.98269 24.7363 4.85235 24.659 4.72502C24.5816 4.59769 24.5013 4.47102 24.418 4.34502C24.3346 4.22035 24.2483 4.09769 24.159 3.97702C24.0696 3.85635 23.9773 3.73802 23.882 3.62202C23.7866 3.50602 23.6886 3.39235 23.588 3.28102C23.4873 3.16969 23.384 3.06102 23.278 2.95502C23.172 2.84902 23.0633 2.74569 22.952 2.64502C22.8406 2.54435 22.727 2.44635 22.611 2.35102C22.495 2.25569 22.377 2.16335 22.257 2.07402C22.137 1.98469 22.0143 1.89835 21.889 1.81502C21.7643 1.73169 21.6376 1.65135 21.509 1.57402C21.3803 1.49669 21.25 1.42269 21.118 1.35202C20.9846 1.28135 20.8513 1.21469 20.718 1.15202C20.5846 1.08935 20.4476 1.02869 20.307 0.97002C20.1683 0.912686 20.0283 0.858686 19.887 0.80802C19.7456 0.757353 19.6033 0.710353 19.46 0.66702C19.3166 0.623686 19.172 0.583686 19.026 0.54702C18.88 0.510353 18.7336 0.47702 18.587 0.44702C18.4396 0.417686 18.292 0.39202 18.144 0.37002C17.996 0.34802 17.847 0.329686 17.697 0.31502C17.5483 0.300353 17.3986 0.289353 17.248 0.28202C17.0973 0.274686 16.948 0.270686 16.8 0.27002C16.65 0.27002 16.5 0.273686 16.35 0.28102C16.2 0.288353 16.0503 0.299353 15.901 0.31402C15.7516 0.328686 15.603 0.34702 15.455 0.36902C15.307 0.39102 15.1593 0.416686 15.012 0.44602C14.8653 0.475353 14.719 0.508686 14.573 0.54602C14.427 0.583353 14.2826 0.623353 14.14 0.66602C13.996 0.71002 13.8536 0.75702 13.713 0.80702C13.5723 0.85702 13.4323 0.911353 13.293 0.97002C13.1543 1.02735 13.0173 1.08802 12.882 1.15202C12.7466 1.21602 12.6133 1.28269 12.482 1.35202C12.3486 1.42269 12.2183 1.49669 12.091 1.57402C11.9636 1.65135 11.837 1.73169 11.711 1.81502C11.5863 1.89835 11.4636 1.98469 11.343 2.07402C11.2223 2.16335 11.104 2.25569 10.988 2.35102C10.872 2.44635 10.7583 2.54435 10.647 2.64502C10.5356 2.74569 10.427 2.84902 10.321 2.95502C10.215 3.06102 10.1116 3.16969 10.011 3.28102C9.9103 3.39235 9.8123 3.50602 9.71696 3.62202C9.62163 3.73802 9.5293 3.85635 9.43996 3.97702C9.35063 4.09769 9.26429 4.22035 9.18096 4.34502C9.09763 4.46969 9.0173 4.59635 8.93996 4.72502C8.86263 4.85369 8.78863 4.98402 8.71796 5.11602C8.6473 5.24935 8.58063 5.38269 8.51796 5.51602C8.45529 5.64935 8.39463 5.78635 8.33596 5.92702C8.27863 6.06569 8.22463 6.20569 8.17397 6.34702C8.1233 6.48835 8.0763 6.63069 8.03297 6.77402C7.98963 6.91735 7.94963 7.06202 7.91296 7.20802C7.8763 7.35402 7.84297 7.50035 7.81297 7.64702C7.78363 7.79435 7.75796 7.94202 7.73596 8.09002C7.71396 8.23802 7.69563 8.38702 7.68096 8.53702C7.66629 8.68635 7.6553 8.83602 7.64796 8.98602C7.64063 9.13602 7.63696 9.28602 7.63696 9.43602C7.63696 9.58602 7.64063 9.73602 7.64796 9.88602C7.6553 10.036 7.66629 10.1857 7.68096 10.335" fill="#F2BD2C"/>
</g>
</svg>
