<svg width="28" height="28" viewBox="0 0 28 28" fill="none" xmlns="http://www.w3.org/2000/svg">
<path d="M16.6531 19.6737L24.2731 27.2937C24.6728 27.6934 25.2148 27.9179 25.7801 27.9179C26.3453 27.9179 26.8874 27.6934 27.2871 27.2937C27.6868 26.894 27.9113 26.3519 27.9113 25.7867C27.9113 25.2215 27.6868 24.6794 27.2871 24.2797L19.6871 16.6797C18.8733 17.8611 17.8443 18.8788 16.6541 19.6797" fill="#131414"/>
<path d="M17.605 17.5161C16.1695 18.9515 14.3406 19.929 12.3496 20.325C10.3586 20.721 8.29492 20.5177 6.41947 19.7408C4.54401 18.9639 2.94103 17.6483 1.81324 15.9604C0.685451 14.2726 0.0834961 12.2881 0.0834961 10.2581C0.0834961 8.22815 0.685451 6.24374 1.81324 4.55585C2.94103 2.86796 4.54401 1.55239 6.41947 0.775515C8.29492 -0.00136411 10.3586 -0.204668 12.3496 0.191312C14.3406 0.587292 16.1695 1.56477 17.605 3.00015C19.527 4.92643 20.6064 7.53647 20.6064 10.2576C20.6064 12.9788 19.527 15.5889 17.605 17.5151M4.59798 4.50815C3.46065 5.6454 2.6861 7.09439 2.37228 8.67185C2.05846 10.2493 2.21947 11.8844 2.83494 13.3704C3.45042 14.8563 4.49272 16.1264 5.83003 17.02C7.16734 17.9136 8.7396 18.3905 10.348 18.3905C11.9564 18.3905 13.5286 17.9136 14.8659 17.02C16.2033 16.1264 17.2455 14.8563 17.861 13.3704C18.4765 11.8844 18.6375 10.2493 18.3237 8.67185C18.0099 7.09439 17.2353 5.6454 16.098 4.50815C14.5718 2.98542 12.5039 2.13025 10.348 2.13025C8.19207 2.13025 6.12418 2.98542 4.59798 4.50815Z" fill="#131414"/>
<path d="M6.68998 14.9438C6.55364 15.0801 6.36876 15.1567 6.17598 15.1567C5.9832 15.1567 5.79831 15.0801 5.66198 14.9438C4.42119 13.7002 3.72437 12.0151 3.72437 10.2583C3.72437 8.50156 4.42119 6.81651 5.66198 5.57284C5.72908 5.50354 5.80929 5.44829 5.89795 5.41031C5.98661 5.37232 6.08195 5.35236 6.1784 5.35159C6.27485 5.35081 6.3705 5.36924 6.45976 5.40579C6.54902 5.44234 6.63012 5.49629 6.69832 5.5645C6.76653 5.6327 6.82048 5.7138 6.85703 5.80306C6.89358 5.89232 6.91201 5.98796 6.91123 6.08442C6.91045 6.18087 6.89049 6.2762 6.85251 6.36487C6.81452 6.45353 6.75927 6.53374 6.68998 6.60084C5.72124 7.57175 5.17719 8.88729 5.17719 10.2588C5.17719 11.6304 5.72124 12.9459 6.68998 13.9168C6.82628 14.0532 6.90285 14.2381 6.90285 14.4308C6.90285 14.6236 6.82628 14.8075 6.68998 14.9438Z" fill="#131414"/>
</svg>
