<svg width="40" height="36" viewBox="0 0 40 36" fill="none" xmlns="http://www.w3.org/2000/svg">
<mask id="mask0_2378_1601" style="mask-type:luminance" maskUnits="userSpaceOnUse" x="0" y="0" width="40" height="36">
<path d="M39.3079 0.633789H0.191895V35.6338H39.3079V0.633789Z" fill="white"/>
</mask>
<g mask="url(#mask0_2378_1601)">
<path d="M38.7399 29.3098L23.4009 2.74183C23.0315 2.10044 22.4997 1.56771 21.8589 1.19729C21.2181 0.826868 20.491 0.631836 19.7509 0.631836C19.0107 0.631836 18.2837 0.826868 17.6429 1.19729C17.0021 1.56771 16.4703 2.10044 16.1009 2.74183L0.759884 29.3098C0.389316 29.9505 0.194084 30.6774 0.193848 31.4175C0.193612 32.1576 0.388381 32.8846 0.758541 33.5255C1.1287 34.1664 1.66118 34.6984 2.30237 35.068C2.94355 35.4376 3.6708 35.6317 4.41088 35.6308H35.0919C35.8324 35.632 36.5602 35.438 37.2018 35.0682C37.8434 34.6985 38.3761 34.1661 38.7464 33.5248C39.1166 32.8834 39.3113 32.1558 39.3107 31.4153C39.31 30.6748 39.1142 29.9475 38.7429 29.3068M23.7169 27.8608L19.4249 31.8908L18.0439 26.1688L19.7919 27.3388L21.3369 21.0628L15.5039 22.8628L16.4649 11.9738L21.3219 11.0658L19.0919 18.7738L25.3649 17.2418L21.6169 27.8818L23.7169 27.8608Z" fill="#FFC72D"/>
</g>
</svg>
