<svg width="367" height="537" viewBox="0 0 367 537" fill="none" xmlns="http://www.w3.org/2000/svg">
<g clip-path="url(#clip0_2450_635)">
<g opacity="0.04">
<path d="M196.724 0H169.454L94.367 317.816L0 536.042H28.962L119.657 326.2L196 3.053L196.724 0Z" fill="#131414"/>
<path d="M196.723 0H169.453L170.175 3.051L246.254 325.051L246.522 326.19L337.222 536.037H366.096L271.816 317.811L196.723 0Z" fill="#131414"/>
<path d="M284.983 367.786L22.4058 519.389L26.8288 527.05L289.406 375.446L284.983 367.786Z" fill="#131414"/>
<path d="M261.748 303.356L63.293 417.938L67.716 425.599L266.171 311.017L261.748 303.356Z" fill="#131414"/>
<path d="M247.602 233.681L114.059 310.784L118.482 318.445L252.025 241.341L247.602 233.681Z" fill="#131414"/>
<path d="M230.802 165.535L130.861 223.238L135.284 230.898L235.225 173.195L230.802 165.535Z" fill="#131414"/>
<path d="M214.57 97.062L147.095 136.02L151.518 143.681L218.993 104.723L214.57 97.062Z" fill="#131414"/>
<path d="M82.2457 368.47L77.8232 376.131L339.266 527.051L343.689 519.389L82.2457 368.47Z" fill="#131414"/>
<path d="M109.011 306.073L104.589 313.734L304.495 429.131L308.917 421.47L109.011 306.073Z" fill="#131414"/>
<path d="M121.528 235.449L117.105 243.11L259.681 325.429L264.104 317.768L121.528 235.449Z" fill="#131414"/>
<path d="M140.868 168.766L136.445 176.427L238.584 235.399L243.007 227.738L140.868 168.766Z" fill="#131414"/>
<path d="M153.399 98.1533L148.976 105.814L212.689 142.6L217.112 134.939L153.399 98.1533Z" fill="#131414"/>
<path d="M221.578 67.3838H359.972V93.9238H227.85L221.578 67.3838Z" fill="#131414"/>
<path d="M6.12207 93.9218V67.3818H144.602L138.331 93.9218H6.12207Z" fill="#131414"/>
<path d="M251.446 193.798H359.972V220.333H257.715L251.446 193.798Z" fill="#131414"/>
<path d="M6.12207 220.333V193.798H114.734L108.464 220.336L6.12207 220.333Z" fill="#131414"/>
<path d="M43.8651 58.5372H17.3271L26.1721 42.6152H35.0191L43.8651 58.5372Z" fill="#131414"/>
<path d="M17.3262 0.150879L26.1732 16.0749H35.0202L43.8642 0.150879H17.3262Z" fill="#131414"/>
<path d="M43.8651 24.9199H17.3271V33.7669H43.8651V24.9199Z" fill="#131414"/>
<path d="M98.3622 58.5372H71.8242L80.6692 42.6152H89.5162L98.3622 58.5372Z" fill="#131414"/>
<path d="M71.8232 0.150879L80.6702 16.0749H89.5172L98.3612 0.150879H71.8232Z" fill="#131414"/>
<path d="M98.3632 24.9199H71.8252V33.7669H98.3632V24.9199Z" fill="#131414"/>
<path d="M322.228 58.5372H348.766L339.921 42.6152H331.074L322.228 58.5372Z" fill="#131414"/>
<path d="M322.227 0.150879L331.074 16.0749H339.921L348.765 0.150879H322.227Z" fill="#131414"/>
<path d="M348.766 24.9199H322.228V33.7669H348.766V24.9199Z" fill="#131414"/>
<path d="M267.731 58.5372H294.269L285.424 42.6152H276.577L267.731 58.5372Z" fill="#131414"/>
<path d="M267.731 0.150879L276.578 16.0749H285.425L294.269 0.150879H267.731Z" fill="#131414"/>
<path d="M294.269 24.9199H267.731V33.7669H294.269V24.9199Z" fill="#131414"/>
<path d="M43.8651 184.952H17.3271L26.1721 169.03H35.0191L43.8651 184.952Z" fill="#131414"/>
<path d="M43.8651 126.566H17.3271L26.1721 142.488H35.0191L43.8651 126.566Z" fill="#131414"/>
<path d="M43.8651 151.336H17.3271V160.183H43.8651V151.336Z" fill="#131414"/>
<path d="M98.3622 184.952H71.8242L80.6692 169.03H89.5162L98.3622 184.952Z" fill="#131414"/>
<path d="M98.3622 126.566H71.8242L80.6692 142.488H89.5162L98.3622 126.566Z" fill="#131414"/>
<path d="M98.3632 151.336H71.8252V160.183H98.3632V151.336Z" fill="#131414"/>
<path d="M322.228 184.952H348.766L339.921 169.03H331.074L322.228 184.952Z" fill="#131414"/>
<path d="M322.228 126.566H348.766L339.921 142.488H331.074L322.228 126.566Z" fill="#131414"/>
<path d="M348.766 151.336H322.228V160.183H348.766V151.336Z" fill="#131414"/>
<path d="M267.731 184.952H294.269L285.424 169.03H276.577L267.731 184.952Z" fill="#131414"/>
<path d="M267.731 126.566H294.269L285.424 142.488H276.577L267.731 126.566Z" fill="#131414"/>
<path d="M294.269 151.336H267.731V160.183H294.269V151.336Z" fill="#131414"/>
</g>
</g>
<defs>
<clipPath id="clip0_2450_635">
<rect width="366.093" height="536.042" fill="white"/>
</clipPath>
</defs>
</svg>
