<svg width="59" height="59" viewBox="0 0 59 59" fill="none" xmlns="http://www.w3.org/2000/svg">
<path d="M32.5778 1.53571L33.4718 2.48471C34.094 3.14534 34.8878 3.61968 35.7644 3.85459C36.641 4.0895 37.5656 4.07569 38.4348 3.81471L39.6838 3.43971C40.3221 3.24821 40.9928 3.1893 41.6547 3.26661C42.3166 3.34392 42.9557 3.55582 43.5327 3.88927C44.1097 4.22272 44.6123 4.67067 45.0098 5.20558C45.4072 5.74049 45.6911 6.35105 45.8438 6.99971L46.1438 8.26971C46.3528 9.15218 46.8032 9.9591 47.4446 10.6002C48.086 11.2413 48.8932 11.6912 49.7758 11.8997L51.0458 12.1997C51.6941 12.3529 52.3042 12.6371 52.8387 13.0347C53.3732 13.4323 53.8207 13.9351 54.1537 14.512C54.4867 15.0889 54.6983 15.7279 54.7754 16.3895C54.8524 17.0512 54.7934 17.7217 54.6018 18.3597L54.2268 19.6087C53.9658 20.4779 53.952 21.4025 54.1869 22.2791C54.4218 23.1557 54.8962 23.9495 55.5568 24.5717L56.5058 25.4657C56.9907 25.9226 57.3771 26.4738 57.6413 27.0855C57.9054 27.6972 58.0416 28.3564 58.0416 29.0227C58.0416 29.689 57.9054 30.3482 57.6413 30.9599C57.3771 31.5716 56.9907 32.1228 56.5058 32.5797L55.5568 33.4737C54.8962 34.0959 54.4218 34.8897 54.1869 35.7663C53.952 36.6429 53.9658 37.5675 54.2268 38.4367L54.6018 39.6847C54.7935 40.3229 54.8527 40.9935 54.7757 41.6553C54.6988 42.3172 54.4873 42.9563 54.1542 43.5335C53.8212 44.1106 53.3736 44.6135 52.8391 45.0113C52.3045 45.4091 51.6943 45.6934 51.0458 45.8467L49.7758 46.1467C48.8929 46.3551 48.0854 46.8053 47.4439 47.4468C46.8024 48.0883 46.3522 48.8958 46.1438 49.7787L45.8438 51.0477C45.6907 51.6961 45.4066 52.3063 45.0091 52.8409C44.6115 53.3755 44.1088 53.8231 43.5318 54.1562C42.9549 54.4894 42.3159 54.701 41.6542 54.7781C40.9924 54.8553 40.3219 54.7962 39.6838 54.6047L38.4348 54.2297C37.5657 53.969 36.6412 53.9552 35.7647 54.1899C34.8882 54.4246 34.0943 54.8985 33.4718 55.5587L32.5778 56.5087C32.1209 56.9937 31.5697 57.3801 30.958 57.6442C30.3463 57.9083 29.6871 58.0445 29.0208 58.0445C28.3545 58.0445 27.6953 57.9083 27.0836 57.6442C26.4719 57.3801 25.9207 56.9937 25.4638 56.5087L24.5698 55.5587C23.9473 54.8985 23.1534 54.4246 22.2769 54.1899C21.4004 53.9552 20.4759 53.969 19.6068 54.2297L18.3578 54.6047C17.7197 54.7962 17.0492 54.8553 16.3875 54.7781C15.7257 54.701 15.0867 54.4894 14.5098 54.1562C13.9329 53.8231 13.4301 53.3755 13.0325 52.8409C12.635 52.3063 12.3509 51.6961 12.1978 51.0477L11.8978 49.7787C11.6896 48.8957 11.2395 48.0881 10.5979 47.4466C9.95642 46.805 9.14884 46.3549 8.2658 46.1467L6.9998 45.8437C6.35092 45.691 5.74014 45.4071 5.20507 45.0095C4.66999 44.6119 4.22193 44.1091 3.88846 43.5319C3.55498 42.9547 3.34315 42.3153 3.26599 41.6532C3.18883 40.9911 3.24798 40.3201 3.4398 39.6817L3.8148 38.4337C4.07555 37.5646 4.08934 36.6401 3.85463 35.7636C3.61993 34.8871 3.14597 34.0932 2.4858 33.4707L1.5358 32.5767C1.05086 32.1198 0.664458 31.5686 0.400349 30.9569C0.13624 30.3452 0 29.686 0 29.0197C0 28.3534 0.13624 27.6942 0.400349 27.0825C0.664458 26.4708 1.05086 25.9196 1.5358 25.4627L2.4858 24.5687C3.14597 23.9462 3.61993 23.1523 3.85463 22.2758C4.08934 21.3993 4.07555 20.4748 3.8148 19.6057L3.4398 18.3587C3.24846 17.7205 3.18967 17.0499 3.26706 16.3881C3.34445 15.7263 3.55638 15.0873 3.88981 14.5105C4.22325 13.9336 4.67115 13.431 5.20598 13.0336C5.7408 12.6363 6.35125 12.3525 6.9998 12.1997L8.2688 11.8997C9.15181 11.691 9.95923 11.2404 10.6006 10.5985C11.2419 9.95668 11.6918 9.14889 11.8998 8.26571L12.1998 6.99971C12.353 6.35141 12.6372 5.74128 13.0348 5.20682C13.4324 4.67236 13.9352 4.22486 14.5121 3.89181C15.089 3.55877 15.728 3.34722 16.3896 3.27016C17.0513 3.1931 17.7218 3.25216 18.3598 3.44371L19.6088 3.81871C20.478 4.07969 21.4026 4.0935 22.2792 3.85859C23.1558 3.62369 23.9496 3.14934 24.5718 2.48871L25.4658 1.53971C25.9227 1.05476 26.4739 0.668365 27.0856 0.404256C27.6973 0.140147 28.3565 0.00390625 29.0228 0.00390625C29.6891 0.00390625 30.3483 0.140147 30.96 0.404256C31.5717 0.668365 32.1229 1.05476 32.5798 1.53971" fill="#231F20"/>
<path d="M41.4001 16.2754L24.2001 33.4754L16.6411 25.9074L12.4941 30.0564L24.2001 41.7654L45.5461 20.4204L41.4001 16.2754Z" fill="white"/>
</svg>
