<svg width="61" height="57" viewBox="0 0 61 57" fill="none" xmlns="http://www.w3.org/2000/svg">
<mask id="mask0_2378_1457" style="mask-type:luminance" maskUnits="userSpaceOnUse" x="0" y="0" width="61" height="57">
<path d="M60.8331 0.833008H0.151123V56.844H60.8331V0.833008Z" fill="white"/>
</mask>
<g mask="url(#mask0_2378_1457)">
<path d="M22.8442 23.5605L21.8362 24.7895C21.1702 25.6045 20.3122 26.3785 19.4522 25.2235L19.4172 25.1755C19.1302 24.7915 19.2712 24.0695 19.2702 23.6185V20.9875C18.3502 20.9295 15.7482 21.1465 15.0312 20.8565C12.4212 19.8015 12.6852 17.6045 12.6832 15.1885V5.58853C12.6459 4.91171 12.6549 4.23312 12.7102 3.55753C12.8294 2.88751 13.1537 2.27101 13.6382 1.79312C14.1227 1.31522 14.7436 0.999503 15.4152 0.889528H15.4682C16.4182 0.801528 17.4132 0.860528 18.3682 0.860528H40.8372H43.9052C44.5616 0.808129 45.2219 0.830607 45.8732 0.927528C48.2732 1.52753 48.3032 3.48653 48.3032 5.40653V17.1615C48.3301 17.5829 48.3056 18.0061 48.2302 18.4215L48.2142 18.4845C47.6412 20.7405 45.9932 20.9845 44.0982 20.9845L41.7342 20.9945V23.6785C41.7587 24.0867 41.754 24.496 41.7202 24.9035C41.6751 25.0776 41.5909 25.2391 41.4742 25.3758C41.3574 25.5126 41.2111 25.621 41.0462 25.6928C40.8814 25.7647 40.7024 25.7982 40.5228 25.7906C40.3431 25.7831 40.1675 25.7349 40.0092 25.6495C39.5819 25.3072 39.2058 24.9054 38.8922 24.4565L36.5922 21.6335C36.1722 21.1265 36.2782 20.9705 35.5832 20.9735H25.8692C24.6062 20.9735 24.8922 21.0625 24.0292 22.1035L22.8442 23.5605ZM18.9922 6.56053C17.8592 6.70553 17.3122 7.98553 18.4612 8.65053L18.5022 8.67553C18.6498 8.73716 18.8095 8.76451 18.9692 8.75553H42.0152C43.5672 8.55553 43.5012 6.65053 42.0962 6.56153C41.1012 6.49853 40.0612 6.55653 39.0622 6.55553L18.9922 6.56053ZM18.7332 12.7605C18.4622 12.8083 18.2194 12.9569 18.0535 13.1764C17.8876 13.3959 17.8109 13.6701 17.8389 13.9438C17.8669 14.2175 17.9975 14.4705 18.2044 14.6519C18.4113 14.8333 18.6792 14.9296 18.9542 14.9215L39.6342 14.9125C40.5342 14.9125 41.4772 14.9665 42.3752 14.8915C42.6228 14.8301 42.8409 14.6836 42.9915 14.4777C43.1421 14.2718 43.2155 14.0195 43.1989 13.7649C43.1824 13.5104 43.0769 13.2697 42.9009 13.085C42.725 12.9004 42.4897 12.7834 42.2362 12.7545L18.7332 12.7605Z" fill="#F4F4F4"/>
<path d="M54.3632 56.778H45.2962C45.2572 56.367 45.3052 55.904 45.3052 55.487V51.34C45.336 50.6067 45.3266 49.8722 45.2772 49.14C45.1285 48.21 44.7518 47.3314 44.1807 46.5826C43.6095 45.8338 42.8617 45.2382 42.0042 44.849C43.4301 44.2703 44.9199 43.8638 46.4422 43.638L46.4561 42.928C46.4561 42.595 46.3501 42.519 46.1181 42.282L45.4432 41.598C44.5002 40.6801 43.7159 39.6123 43.1221 38.438C42.6297 37.1209 42.4583 35.7055 42.6221 34.309C42.5725 33.3752 42.5962 32.439 42.6932 31.509C42.9789 30.1551 43.7045 28.9338 44.7569 28.0354C45.8092 27.137 47.1292 26.6119 48.5112 26.542C49.9647 26.4682 51.3963 26.92 52.5442 27.8148C53.6921 28.7095 54.4797 29.9874 54.7632 31.415C54.881 32.5165 54.9101 33.6258 54.8502 34.732V36.303C54.8242 38.931 52.9572 40.678 51.2662 42.47C51.0872 42.66 50.8662 43.312 51.0832 43.533C51.1622 43.613 52.4962 44.033 52.7072 44.108L57.2372 45.936C59.1372 46.749 60.7482 47.141 60.8372 49.57V55.183C60.8372 56.274 60.7571 56.774 59.4371 56.778H54.3632Z" fill="#F4F4F4"/>
<path d="M7.68312 56.778H3.26312C1.28212 56.778 0.163123 57.355 0.163123 54.985L0.151123 50.383C0.151123 47.177 1.06112 47.072 3.94212 45.859L8.05112 44.2C8.69387 43.9483 9.35307 43.7408 10.0241 43.579C10.0592 43.2826 10.0419 42.9824 9.97312 42.692L9.92712 42.634C8.56112 40.896 6.78612 39.998 6.27812 37.4L6.21512 37.034C6.08132 35.0879 6.11109 33.1341 6.30412 31.193C6.61889 29.9707 7.29973 28.8738 8.25539 28.0493C9.21106 27.2249 10.3959 26.7122 11.6511 26.58C14.8951 26.39 17.8161 28.201 18.3711 31.58C18.4194 31.9988 18.4348 32.4208 18.4171 32.842V34.821C18.4171 37.677 18.3571 38.716 16.1471 41.021C15.5578 41.5719 15.0037 42.1594 14.4881 42.78C14.4511 43.461 14.5191 43.674 15.0961 43.792L15.9721 43.975C17.0042 44.2172 18.0196 44.5255 19.0121 44.898L18.7901 44.984C16.6021 45.929 15.7041 48.171 15.6991 50.408L15.7051 56.774L7.68312 56.778Z" fill="#F4F4F4"/>
<path d="M31.3082 56.7778H20.1432C18.6502 56.7778 17.8432 57.1588 17.8432 55.4408L17.8372 50.8578C17.8372 49.1968 17.8372 48.0248 19.4372 47.0058C20.4685 46.4321 21.5475 45.9487 22.6622 45.5608L26.6192 44.0458C27.1167 43.862 27.6238 43.7051 28.1382 43.5758L28.2032 43.5618C28.2522 42.7868 28.3742 42.7138 27.8102 42.1548L26.8102 41.1448C26.0909 40.4846 25.5186 39.6804 25.1306 38.7845C24.7426 37.8886 24.5476 36.921 24.5582 35.9448V33.8608C24.5582 31.9708 24.4022 30.5748 25.6702 28.9558C26.1784 28.298 26.8133 27.7487 27.5375 27.3404C28.2616 26.9321 29.0602 26.6732 29.8862 26.5788C30.7054 26.485 31.5351 26.5577 32.3255 26.7924C33.116 27.0271 33.8509 27.4191 34.4862 27.9448C36.7432 29.8448 36.5072 31.8288 36.5132 34.4128C36.5182 36.8918 36.6132 38.2578 34.9252 40.3788C34.3312 41.1248 33.5772 41.7088 32.9592 42.4248C32.7072 42.7168 32.8092 43.1998 32.8382 43.5598C34.7732 44.1468 36.6052 44.8918 38.4802 45.6398L40.3722 46.3908C42.9852 47.4708 43.2082 48.3838 43.2112 50.8528L43.2172 55.1978C43.2232 57.0718 42.7692 56.7738 41.1232 56.7748L31.3082 56.7778Z" fill="#F4F4F4"/>
</g>
</svg>
