<svg width="32" height="36" viewBox="0 0 32 36" fill="none" xmlns="http://www.w3.org/2000/svg">
<mask id="mask0_2378_1610" style="mask-type:luminance" maskUnits="userSpaceOnUse" x="0" y="0" width="32" height="36">
<path d="M31.9378 0.316895H0.277832V35.3169H31.9378V0.316895Z" fill="white"/>
</mask>
<g mask="url(#mask0_2378_1610)">
<path d="M31.9218 33.871C31.9118 33.667 31.8968 33.463 31.8768 33.259C31.8568 33.055 31.8315 32.8523 31.8008 32.651C31.7708 32.451 31.7358 32.251 31.6958 32.051C31.6558 31.851 31.6108 31.651 31.5608 31.451C31.5115 31.251 31.4568 31.054 31.3968 30.86C31.3368 30.666 31.2725 30.472 31.2038 30.278C31.1372 30.0853 31.0635 29.8947 30.9828 29.706C30.9022 29.5173 30.8192 29.3304 30.7338 29.145C30.6465 28.9604 30.5545 28.7777 30.4578 28.597C30.3612 28.4163 30.2612 28.2384 30.1578 28.063C30.0525 27.8877 29.9432 27.715 29.8298 27.545C29.7165 27.375 29.5988 27.2083 29.4768 27.045C29.3548 26.881 29.2292 26.72 29.0998 26.562C28.9705 26.404 28.8372 26.2493 28.6998 26.098C28.5625 25.946 28.4215 25.798 28.2768 25.654C28.1322 25.51 27.9842 25.369 27.8328 25.231C27.6815 25.0937 27.5268 24.9603 27.3688 24.831C27.2108 24.7017 27.0472 24.575 26.8778 24.451C26.7132 24.329 26.5465 24.2113 26.3778 24.098C26.2092 23.9847 26.0365 23.8754 25.8598 23.77C25.6845 23.6647 25.5068 23.5647 25.3268 23.47C25.1468 23.3753 24.9642 23.2833 24.7788 23.194C24.5942 23.106 24.4075 23.023 24.2188 22.945C24.0302 22.867 23.8395 22.7933 23.6468 22.724C23.4542 22.6573 23.2602 22.593 23.0648 22.531C22.8695 22.469 22.6725 22.4143 22.4738 22.367C22.2738 22.317 22.0738 22.272 21.8738 22.232C21.6738 22.192 21.4738 22.157 21.2738 22.127C21.0738 22.097 20.8708 22.0717 20.6648 22.051C20.4588 22.0303 20.2548 22.015 20.0528 22.005C19.8488 21.995 19.6445 21.9897 19.4398 21.989H12.7778C12.5738 21.989 12.3695 21.9943 12.1648 22.005C11.9602 22.0157 11.7565 22.031 11.5538 22.051C11.3538 22.071 11.1508 22.0963 10.9448 22.127C10.7388 22.1577 10.5388 22.1927 10.3448 22.232C10.1448 22.272 9.94483 22.317 9.74483 22.367C9.54483 22.417 9.34783 22.4717 9.15383 22.531C8.9585 22.5903 8.7645 22.6547 8.57183 22.724C8.37916 22.7933 8.1885 22.867 7.99983 22.945C7.81117 23.023 7.62417 23.106 7.43883 23.194C7.2535 23.282 7.07117 23.374 6.89183 23.47C6.71117 23.5667 6.5335 23.6667 6.35883 23.77C6.18417 23.8734 6.0115 23.9827 5.84083 24.098C5.67083 24.212 5.50417 24.3297 5.34083 24.451C5.1775 24.5724 5.0165 24.6983 4.85783 24.829C4.69983 24.9583 4.54517 25.0917 4.39383 25.229C4.2425 25.3663 4.0945 25.5073 3.94983 25.652C3.80517 25.7967 3.66417 25.9447 3.52683 26.096C3.3895 26.2473 3.25617 26.402 3.12683 26.56C2.99683 26.718 2.87117 26.879 2.74983 27.043C2.6285 27.207 2.51083 27.3737 2.39683 27.543C2.2835 27.713 2.17417 27.8857 2.06883 28.061C1.9635 28.2363 1.8635 28.4143 1.76883 28.595C1.67217 28.775 1.58017 28.9577 1.49283 29.143C1.4055 29.3283 1.3225 29.5153 1.24383 29.704C1.16517 29.8927 1.0915 30.0833 1.02283 30.276C0.954165 30.4687 0.889832 30.6627 0.829832 30.858C0.770499 31.054 0.715832 31.251 0.665832 31.449C0.615832 31.647 0.570832 31.847 0.530832 32.049C0.490832 32.249 0.455832 32.449 0.425832 32.649C0.395832 32.849 0.370499 33.0517 0.349832 33.257C0.329832 33.4604 0.314499 33.6644 0.303832 33.869C0.293165 34.0737 0.284499 34.2787 0.277832 34.484C0.277856 34.5387 0.283214 34.5933 0.293832 34.647C0.304868 34.7004 0.32094 34.7526 0.341832 34.803C0.362761 34.8534 0.38855 34.9016 0.418832 34.947C0.448132 34.9921 0.481613 35.0342 0.518832 35.073C0.675104 35.2291 0.886933 35.3169 1.10783 35.317H31.1048C31.2143 35.317 31.3226 35.2956 31.4238 35.254C31.4742 35.2331 31.5225 35.2073 31.5678 35.177C31.613 35.1479 31.6552 35.1144 31.6938 35.077C31.7312 35.0384 31.7647 34.9962 31.7938 34.951C31.8546 34.8602 31.8967 34.7582 31.9178 34.651C31.9286 34.5973 31.9339 34.5427 31.9338 34.488C31.9338 34.2833 31.9285 34.079 31.9178 33.875" fill="#F2BD2C"/>
<path d="M6.98682 10.3819C7.00149 10.5312 7.01982 10.6802 7.04182 10.8289C7.06382 10.9776 7.08949 11.1252 7.11883 11.2719C7.14816 11.4192 7.18149 11.5656 7.21883 11.7109C7.25616 11.8562 7.29615 12.0006 7.33882 12.1439C7.38282 12.2879 7.42983 12.4306 7.47983 12.5719C7.52983 12.7132 7.58382 12.8532 7.64182 12.9919C7.69916 13.1306 7.75982 13.2676 7.82382 13.4029C7.88782 13.5382 7.95449 13.6716 8.02383 13.8029C8.09449 13.9362 8.16849 14.0666 8.24583 14.1939C8.32316 14.3212 8.40349 14.4479 8.48682 14.5739C8.57016 14.6986 8.65649 14.8212 8.74583 14.9419C8.83516 15.0626 8.92749 15.1809 9.02283 15.2969C9.11816 15.4129 9.21616 15.5266 9.31683 15.6379C9.41749 15.7492 9.52082 15.8579 9.62682 15.9639C9.73282 16.0699 9.84149 16.1732 9.95283 16.2739C10.0642 16.3746 10.1778 16.4726 10.2938 16.5679C10.4098 16.6632 10.5282 16.7556 10.6488 16.8449C10.7695 16.9342 10.8922 17.0206 11.0168 17.1039C11.1415 17.1872 11.2682 17.2676 11.3968 17.3449C11.5255 17.4222 11.6558 17.4962 11.7878 17.5669C11.9212 17.6376 12.0545 17.7042 12.1878 17.7669C12.3212 17.8296 12.4582 17.8902 12.5988 17.9489C12.7375 18.0062 12.8775 18.0602 13.0188 18.1109C13.1602 18.1616 13.3025 18.2086 13.4458 18.2519C13.5892 18.2959 13.7335 18.3359 13.8788 18.3719C14.0242 18.4079 14.1705 18.4412 14.3178 18.4719C14.4645 18.5012 14.6122 18.5269 14.7608 18.5489C14.9095 18.5709 15.0582 18.5892 15.2068 18.6039C15.3562 18.6186 15.5058 18.6296 15.6558 18.6369C15.8058 18.6442 15.9558 18.6479 16.1058 18.6479C16.2558 18.6479 16.4058 18.6442 16.5558 18.6369C16.7058 18.6296 16.8555 18.6186 17.0048 18.6039C17.1542 18.5892 17.3032 18.5709 17.4518 18.5489C17.6005 18.5269 17.7482 18.5012 17.8948 18.4719C18.0422 18.4426 18.1885 18.4092 18.3338 18.3719C18.4792 18.3346 18.6238 18.2946 18.7678 18.2519C18.9112 18.2086 19.0535 18.1616 19.1948 18.1109C19.3362 18.0602 19.4762 18.0062 19.6148 17.9489C19.7535 17.8916 19.8905 17.8309 20.0258 17.7669C20.1612 17.7029 20.2945 17.6362 20.4258 17.5669C20.5592 17.4962 20.6895 17.4222 20.8168 17.3449C20.9442 17.2676 21.0708 17.1872 21.1968 17.1039C21.3215 17.0206 21.4442 16.9342 21.5648 16.8449C21.6855 16.7556 21.8035 16.6632 21.9188 16.5679C22.0348 16.4732 22.1485 16.3752 22.2598 16.2739C22.3712 16.1726 22.4798 16.0692 22.5858 15.9639C22.6918 15.8579 22.7952 15.7492 22.8958 15.6379C22.9965 15.5266 23.0945 15.4129 23.1898 15.2969C23.2852 15.1809 23.3775 15.0626 23.4668 14.9419C23.5562 14.8212 23.6425 14.6986 23.7258 14.5739C23.8092 14.4492 23.8895 14.3226 23.9668 14.1939C24.0442 14.0652 24.1182 13.9349 24.1888 13.8029C24.2595 13.6696 24.3262 13.5362 24.3888 13.4029C24.4515 13.2696 24.5122 13.1326 24.5708 12.9919C24.6282 12.8532 24.6822 12.7132 24.7328 12.5719C24.7835 12.4306 24.8305 12.2879 24.8738 12.1439C24.9178 12.0006 24.9578 11.8562 24.9938 11.7109C25.0298 11.5656 25.0632 11.4192 25.0938 11.2719C25.1232 11.1252 25.1488 10.9776 25.1708 10.8289C25.1928 10.6802 25.2112 10.5312 25.2258 10.3819C25.2405 10.2326 25.2515 10.0829 25.2588 9.93289C25.2662 9.7829 25.2698 9.63289 25.2698 9.48289C25.2698 9.3329 25.2662 9.18289 25.2588 9.03289C25.2515 8.88289 25.2405 8.73323 25.2258 8.58389C25.2112 8.43456 25.1928 8.28556 25.1708 8.13689C25.1488 7.98823 25.1232 7.84056 25.0938 7.69389C25.0645 7.54723 25.0312 7.40089 24.9938 7.25489C24.9565 7.10889 24.9165 6.96423 24.8738 6.82089C24.8305 6.67756 24.7835 6.53523 24.7328 6.39389C24.6822 6.25256 24.6282 6.11256 24.5708 5.97389C24.5135 5.83523 24.4528 5.69823 24.3888 5.56289C24.3248 5.42756 24.2582 5.29423 24.1888 5.16289C24.1182 5.02956 24.0442 4.89923 23.9668 4.77189C23.8895 4.64456 23.8092 4.51789 23.7258 4.39189C23.6425 4.26723 23.5562 4.14456 23.4668 4.02389C23.3775 3.90323 23.2852 3.78489 23.1898 3.66889C23.0945 3.55289 22.9965 3.43923 22.8958 3.32789C22.7952 3.21656 22.6918 3.10789 22.5858 3.00189C22.4798 2.89589 22.3712 2.79256 22.2598 2.69189C22.1485 2.59123 22.0348 2.49323 21.9188 2.39789C21.8028 2.30256 21.6848 2.21023 21.5648 2.12089C21.4448 2.03156 21.3222 1.94523 21.1968 1.86189C21.0722 1.77856 20.9455 1.69823 20.8168 1.62089C20.6882 1.54356 20.5578 1.46956 20.4258 1.39889C20.2925 1.32823 20.1592 1.26156 20.0258 1.19889C19.8925 1.13623 19.7555 1.07556 19.6148 1.01689C19.4762 0.959561 19.3362 0.905561 19.1948 0.854895C19.0535 0.804228 18.9112 0.757228 18.7678 0.713895C18.6245 0.670561 18.4798 0.630561 18.3338 0.593895C18.1878 0.557228 18.0415 0.523895 17.8948 0.493895C17.7475 0.464561 17.5998 0.438895 17.4518 0.416895C17.3038 0.394895 17.1548 0.376561 17.0048 0.361895C16.8562 0.347228 16.7065 0.336228 16.5558 0.328895C16.4052 0.321561 16.2558 0.317561 16.1078 0.316895C15.9578 0.316895 15.8078 0.320561 15.6578 0.327895C15.5078 0.335228 15.3582 0.346228 15.2088 0.360895C15.0595 0.375561 14.9108 0.393895 14.7628 0.415895C14.6148 0.437895 14.4672 0.463561 14.3198 0.492895C14.1732 0.522228 14.0268 0.555561 13.8808 0.592895C13.7348 0.630228 13.5905 0.670228 13.4478 0.712895C13.3038 0.756895 13.1615 0.803895 13.0208 0.853895C12.8802 0.903895 12.7402 0.958228 12.6008 1.01689C12.4622 1.07423 12.3252 1.13489 12.1898 1.19889C12.0545 1.26289 11.9212 1.32956 11.7898 1.39889C11.6565 1.46956 11.5262 1.54356 11.3988 1.62089C11.2715 1.69823 11.1448 1.77856 11.0188 1.86189C10.8942 1.94523 10.7715 2.03156 10.6508 2.12089C10.5302 2.21023 10.4118 2.30256 10.2958 2.39789C10.1798 2.49323 10.0662 2.59123 9.95483 2.69189C9.84349 2.79256 9.73482 2.89589 9.62882 3.00189C9.52282 3.10789 9.41949 3.21656 9.31882 3.32789C9.21816 3.43923 9.12016 3.55289 9.02483 3.66889C8.92949 3.78489 8.83716 3.90323 8.74783 4.02389C8.65849 4.14456 8.57216 4.26723 8.48882 4.39189C8.40549 4.51656 8.32516 4.64323 8.24783 4.77189C8.17049 4.90056 8.09649 5.03089 8.02583 5.16289C7.95516 5.29623 7.88849 5.42956 7.82582 5.56289C7.76315 5.69623 7.70249 5.83323 7.64382 5.97389C7.58649 6.11256 7.53249 6.25256 7.48183 6.39389C7.43116 6.53523 7.38416 6.67756 7.34083 6.82089C7.29749 6.96423 7.25749 7.10889 7.22083 7.25489C7.18416 7.40089 7.15083 7.54723 7.12083 7.69389C7.09149 7.84123 7.06582 7.98889 7.04382 8.13689C7.02182 8.28489 7.00349 8.4339 6.98882 8.58389C6.97416 8.73323 6.96316 8.88289 6.95583 9.03289C6.94849 9.18289 6.94482 9.3329 6.94482 9.48289C6.94482 9.63289 6.94849 9.7829 6.95583 9.93289C6.96316 10.0829 6.97416 10.2326 6.98882 10.3819" fill="#F2BD2C"/>
</g>
</svg>
