<svg width="76" height="68" viewBox="0 0 76 68" fill="none" xmlns="http://www.w3.org/2000/svg">
<path d="M75.3857 61.347L41.4457 2.169C41.1317 1.51918 40.6408 0.971052 40.0295 0.587495C39.4181 0.203937 38.711 0.000488281 37.9892 0.000488281C37.2675 0.000488281 36.5604 0.203937 35.949 0.587495C35.3377 0.971052 34.8468 1.51918 34.5327 2.169L0.597745 61.347C-0.857255 63.93 0.371745 67.541 3.98174 67.541H71.9977C75.6057 67.541 76.8377 63.93 75.3857 61.347ZM4.96074 62.595L37.9877 4.946L71.0187 62.595H4.96074Z" fill="#FFC72D"/>
<path fill-rule="evenodd" clip-rule="evenodd" d="M36.389 23L30 45.163L37.768 41.298L37.451 49.578L35.313 49.203L37.299 56.878L41.729 50.309L39.603 49.949L43.909 34.729L33.725 40.457L41.468 23H36.389Z" fill="#FFC72D"/>
</svg>
