<svg width="28" height="31" viewBox="0 0 28 31" fill="none" xmlns="http://www.w3.org/2000/svg">
<mask id="mask0_2448_58" style="mask-type:luminance" maskUnits="userSpaceOnUse" x="0" y="0" width="28" height="31">
<path d="M27.804 0H0V30.738H27.804V0Z" fill="white"/>
</mask>
<g mask="url(#mask0_2448_58)">
<path d="M27.79 29.4672C27.7807 29.2879 27.7673 29.1089 27.75 28.9302C27.7327 28.7515 27.7107 28.5735 27.684 28.3962C27.6573 28.2182 27.6267 28.0412 27.592 27.8652C27.5573 27.6892 27.5177 27.5142 27.473 27.3402C27.4297 27.1662 27.3817 26.9932 27.329 26.8212C27.2763 26.6492 27.22 26.4789 27.16 26.3102C27.0993 26.1409 27.0347 25.9742 26.966 25.8102C26.8973 25.6462 26.8243 25.4822 26.747 25.3182C26.6703 25.1562 26.5897 24.9959 26.505 24.8372C26.4203 24.6785 26.3317 24.5222 26.239 24.3682C26.147 24.2142 26.051 24.0625 25.951 23.9132C25.851 23.7639 25.7477 23.6172 25.641 23.4732C25.5337 23.3292 25.4233 23.1879 25.31 23.0492C25.1967 22.9105 25.0793 22.7745 24.958 22.6412C24.8373 22.5079 24.7137 22.3779 24.587 22.2512C24.4603 22.1245 24.3303 22.0005 24.197 21.8792C24.0637 21.7585 23.9277 21.6412 23.789 21.5272C23.6503 21.4132 23.509 21.3025 23.365 21.1952C23.221 21.0885 23.0743 20.9852 22.925 20.8852C22.7757 20.7852 22.624 20.6892 22.47 20.5972C22.316 20.5052 22.16 20.4165 22.002 20.3312C21.844 20.2459 21.6837 20.1652 21.521 20.0892C21.359 20.0119 21.195 19.9389 21.029 19.8702C20.863 19.8015 20.6963 19.7369 20.529 19.6762C20.3597 19.6155 20.1893 19.5592 20.018 19.5072C19.8467 19.4552 19.6737 19.4072 19.499 19.3632C19.325 19.3192 19.15 19.2799 18.974 19.2452C18.798 19.2105 18.621 19.1799 18.443 19.1532C18.265 19.1265 18.087 19.1045 17.909 19.0872C17.731 19.0699 17.552 19.0565 17.372 19.0472C17.1927 19.0379 17.0133 19.0332 16.834 19.0332H10.975C10.7957 19.0332 10.6163 19.0379 10.437 19.0472C10.2577 19.0565 10.0787 19.0699 9.9 19.0872C9.72133 19.1052 9.54333 19.1272 9.366 19.1532C9.18867 19.1792 9.01167 19.2099 8.835 19.2452C8.659 19.2805 8.484 19.3199 8.31 19.3632C8.136 19.4065 7.963 19.4545 7.791 19.5072C7.61967 19.5592 7.44933 19.6155 7.28 19.6762C7.11067 19.7369 6.944 19.8015 6.78 19.8702C6.614 19.9369 6.45 20.0099 6.288 20.0892C6.126 20.1685 5.96567 20.2492 5.807 20.3312C5.64833 20.4159 5.49233 20.5045 5.339 20.5972C5.18567 20.6899 5.034 20.7859 4.884 20.8852C4.73467 20.9852 4.588 21.0885 4.444 21.1952C4.3 21.3019 4.15867 21.4125 4.02 21.5272C3.88133 21.6412 3.74533 21.7585 3.612 21.8792C3.47867 21.9999 3.34867 22.1239 3.222 22.2512C3.09533 22.3785 2.97167 22.5085 2.851 22.6412C2.73033 22.7739 2.613 22.9099 2.499 23.0492C2.385 23.1879 2.27467 23.3292 2.168 23.4732C2.06133 23.6172 1.958 23.7639 1.858 23.9132C1.758 24.0625 1.662 24.2142 1.57 24.3682C1.478 24.5222 1.38967 24.6785 1.305 24.8372C1.22033 24.9952 1.13967 25.1555 1.063 25.3182C0.986333 25.4809 0.913333 25.6449 0.844 25.8102C0.777333 25.9762 0.712667 26.1429 0.65 26.3102C0.587333 26.4775 0.531 26.6479 0.481 26.8212C0.429 26.9932 0.381 27.1662 0.337 27.3402C0.293 27.5142 0.253667 27.6892 0.219 27.8652C0.183667 28.0412 0.152667 28.2182 0.126 28.3962C0.0993333 28.5742 0.0773333 28.7522 0.06 28.9302C0.042 29.1089 0.0286667 29.2879 0.02 29.4672C0.0113333 29.6465 0.00466667 29.8262 0 30.0062C1.06758e-05 30.0542 0.0046995 30.1021 0.014 30.1492C0.0236541 30.1961 0.0377166 30.242 0.056 30.2862C0.0744592 30.3306 0.0972349 30.3732 0.124 30.4132C0.150715 30.453 0.181188 30.4902 0.215 30.5242C0.317398 30.6266 0.447931 30.6962 0.59 30.7242C0.637076 30.7336 0.684984 30.7383 0.733 30.7382H27.072C27.12 30.7383 27.1679 30.7336 27.215 30.7242C27.2619 30.7148 27.3078 30.7007 27.352 30.6822C27.3964 30.6637 27.439 30.641 27.479 30.6142C27.5189 30.5876 27.5561 30.5571 27.59 30.5232C27.624 30.4893 27.6545 30.4522 27.681 30.4122C27.7345 30.3323 27.7715 30.2426 27.79 30.1482C27.7994 30.1011 27.8041 30.0532 27.804 30.0052C27.804 29.8259 27.7993 29.6462 27.79 29.4662" fill="#F2BD2C"/>
<path d="M5.89207 8.839C5.90474 8.97233 5.92074 9.103 5.94007 9.231C5.9594 9.359 5.98207 9.48867 6.00807 9.62C6.03341 9.74933 6.06207 9.878 6.09407 10.006C6.12607 10.134 6.16107 10.261 6.19907 10.387C6.23774 10.513 6.27907 10.638 6.32307 10.762C6.36707 10.886 6.41441 11.0087 6.46507 11.13C6.51574 11.252 6.56907 11.3723 6.62507 11.491C6.68107 11.6097 6.7404 11.7273 6.80307 11.844C6.86507 11.96 6.93007 12.0747 6.99807 12.188C7.06607 12.3013 7.13674 12.4127 7.21008 12.522C7.28341 12.6313 7.35907 12.739 7.43707 12.845C7.51507 12.951 7.59607 13.055 7.68007 13.157C7.7634 13.259 7.84941 13.359 7.93807 13.457C8.02674 13.555 8.11741 13.6503 8.21008 13.743C8.30341 13.8363 8.39874 13.927 8.49607 14.015C8.5934 14.103 8.69341 14.189 8.79607 14.273C8.89807 14.3563 9.00207 14.4373 9.10807 14.516C9.21407 14.5947 9.32174 14.6707 9.43108 14.744C9.54041 14.8173 9.65174 14.888 9.76508 14.956C9.87841 15.024 9.99307 15.089 10.1091 15.151C10.2251 15.213 10.3427 15.2723 10.4621 15.329C10.5814 15.3857 10.7017 15.439 10.8231 15.489C10.9444 15.5397 11.0674 15.587 11.1921 15.631C11.3167 15.675 11.4417 15.7163 11.5671 15.755C11.6931 15.7937 11.8201 15.8287 11.9481 15.86C12.0761 15.8913 12.2044 15.9203 12.3331 15.947C12.4624 15.973 12.5921 15.9953 12.7221 16.014C12.8521 16.0327 12.9827 16.049 13.1141 16.063C13.2474 16.0757 13.3787 16.0853 13.5081 16.092C13.6374 16.0987 13.7691 16.102 13.9031 16.102C14.0364 16.102 14.1681 16.0987 14.2981 16.092C14.4281 16.0853 14.5594 16.0757 14.6921 16.063C14.8254 16.0503 14.9561 16.034 15.0841 16.014C15.2121 15.994 15.3417 15.9717 15.4731 15.947C15.6024 15.9217 15.7307 15.8927 15.8581 15.86C15.9854 15.8273 16.1124 15.7923 16.2391 15.755C16.3651 15.717 16.4901 15.6757 16.6141 15.631C16.7381 15.5863 16.8611 15.539 16.9831 15.489C17.1044 15.439 17.2247 15.3857 17.3441 15.329C17.4634 15.2723 17.5811 15.213 17.6971 15.151C17.8131 15.089 17.9277 15.024 18.0411 14.956C18.1544 14.888 18.2657 14.8173 18.3751 14.744C18.4844 14.6707 18.5921 14.5947 18.6981 14.516C18.8041 14.4373 18.9077 14.3563 19.0091 14.273C19.1111 14.1897 19.2111 14.1037 19.3091 14.015C19.4071 13.9263 19.5024 13.8357 19.5951 13.743C19.6877 13.6497 19.7784 13.5543 19.8671 13.457C19.9557 13.3597 20.0417 13.2597 20.1251 13.157C20.2084 13.055 20.2894 12.951 20.3681 12.845C20.4467 12.739 20.5227 12.6313 20.5961 12.522C20.6694 12.412 20.7397 12.3007 20.8071 12.188C20.8744 12.0753 20.9394 11.9607 21.0021 11.844C21.0641 11.728 21.1231 11.6103 21.1791 11.491C21.2351 11.3717 21.2884 11.2513 21.3391 11.13C21.3897 11.0087 21.4371 10.886 21.4811 10.762C21.5251 10.638 21.5664 10.513 21.6051 10.387C21.6437 10.261 21.6787 10.134 21.7101 10.006C21.7414 9.878 21.7704 9.74933 21.7971 9.62C21.8231 9.49067 21.8457 9.361 21.8651 9.231C21.8844 9.101 21.9004 8.97033 21.9131 8.839C21.9257 8.70567 21.9354 8.57433 21.9421 8.445C21.9487 8.31567 21.9517 8.18233 21.9511 8.045C21.9511 7.91167 21.9481 7.77833 21.9421 7.645C21.9361 7.51167 21.9264 7.38033 21.9131 7.251C21.9004 7.11767 21.8844 6.987 21.8651 6.859C21.8457 6.731 21.8231 6.60133 21.7971 6.47C21.7711 6.34067 21.7421 6.21233 21.7101 6.085C21.6781 5.95767 21.6431 5.83067 21.6051 5.704C21.5671 5.578 21.5257 5.453 21.4811 5.329C21.4364 5.205 21.3891 5.082 21.3391 4.96C21.2891 4.83867 21.2357 4.71833 21.1791 4.599C21.1224 4.47967 21.0634 4.362 21.0021 4.246C20.9401 4.13 20.8751 4.01533 20.8071 3.902C20.7391 3.78867 20.6687 3.67733 20.5961 3.568C20.5227 3.45867 20.4467 3.351 20.3681 3.245C20.2894 3.139 20.2084 3.03533 20.1251 2.934C20.0417 2.832 19.9557 2.732 19.8671 2.634C19.7784 2.536 19.6877 2.44067 19.5951 2.348C19.5017 2.25467 19.4064 2.16367 19.3091 2.075C19.2117 1.98633 19.1117 1.90033 19.0091 1.817C18.9071 1.733 18.8034 1.652 18.6981 1.574C18.5927 1.496 18.4851 1.42 18.3751 1.346C18.2657 1.27267 18.1544 1.20233 18.0411 1.135C17.9277 1.06767 17.8131 1.00267 17.6971 0.94C17.5811 0.878 17.4634 0.818667 17.3441 0.762C17.2247 0.705333 17.1044 0.652 16.9831 0.602C16.8611 0.551333 16.7381 0.504 16.6141 0.46C16.4901 0.416 16.3651 0.374667 16.2391 0.336C16.1131 0.298 15.9861 0.263 15.8581 0.231C15.7301 0.199 15.6011 0.173667 15.4711 0.155C15.3417 0.129667 15.2121 0.107 15.0821 0.087C14.9521 0.067 14.8214 0.051 14.6901 0.039C14.5567 0.0263333 14.4254 0.0166667 14.2961 0.01C14.1667 0.00333333 14.0354 0 13.9021 0C13.7687 0 13.6371 0.00333333 13.5071 0.01C13.3771 0.0166667 13.2457 0.0263333 13.1131 0.039C12.9797 0.0523333 12.8491 0.0683333 12.7211 0.087C12.5931 0.105667 12.4634 0.128333 12.3321 0.155C12.2027 0.181 12.0744 0.21 11.9471 0.242C11.8197 0.274 11.6927 0.309 11.5661 0.347C11.4361 0.382333 11.3107 0.423333 11.1901 0.47C11.0694 0.516667 10.9464 0.564 10.8211 0.612C10.6991 0.662667 10.5787 0.716 10.4601 0.772C10.3414 0.828 10.2237 0.887333 10.1071 0.95C9.99107 1.012 9.8764 1.077 9.76307 1.145C9.64974 1.213 9.5384 1.28333 9.42907 1.356C9.31974 1.42933 9.21207 1.50533 9.10607 1.584C9.00007 1.66267 8.89608 1.74367 8.79408 1.827C8.69208 1.91033 8.59207 1.99633 8.49407 2.085C8.39607 2.17367 8.30074 2.26467 8.20807 2.358C8.1154 2.45133 8.02474 2.54667 7.93607 2.644C7.84741 2.74133 7.7614 2.84133 7.67807 2.944C7.59407 3.046 7.51307 3.14967 7.43507 3.255C7.35707 3.36033 7.2814 3.468 7.20807 3.578C7.13474 3.68733 7.06407 3.79867 6.99607 3.912C6.92807 4.02533 6.86307 4.14 6.80107 4.256C6.73907 4.372 6.67974 4.48967 6.62307 4.609C6.5664 4.72833 6.51307 4.84867 6.46307 4.97C6.41241 5.092 6.36508 5.215 6.32108 5.339C6.27708 5.463 6.23574 5.588 6.19707 5.714C6.15907 5.84 6.12407 5.967 6.09207 6.095C6.06007 6.223 6.03141 6.35133 6.00607 6.48C5.98007 6.60933 5.95741 6.739 5.93807 6.869C5.91874 6.999 5.90274 7.12967 5.89008 7.261C5.87741 7.39433 5.86774 7.52567 5.86107 7.655C5.8544 7.78433 5.85107 7.91767 5.85107 8.055C5.85107 8.18833 5.8544 8.32167 5.86107 8.455C5.86774 8.58833 5.87741 8.71967 5.89008 8.849" fill="#F2BD2C"/>
</g>
</svg>
