<svg width="100" height="89" viewBox="0 0 100 89" fill="none" xmlns="http://www.w3.org/2000/svg">
<path d="M98.4069 80.0791L54.0989 2.8311C53.689 1.98275 53.0483 1.26714 52.2502 0.766379C51.4522 0.265619 50.5291 0 49.5869 0C48.6447 0 47.7217 0.265619 46.9236 0.766379C46.1255 1.26714 45.4848 1.98275 45.0749 2.8311L0.776918 80.0791C-1.11808 83.4511 0.485918 88.1641 5.19892 88.1641H93.9839C98.6939 88.1641 100.302 83.4511 98.4069 80.0791ZM6.47792 81.7081L49.5889 6.4561L92.7059 81.7081H6.47792Z" fill="#F4F4F4"/>
<path fill-rule="evenodd" clip-rule="evenodd" d="M46.3359 31.0938L37.9958 60.0248L48.1359 54.9797L47.7219 65.7877L44.9308 65.2988L47.5239 75.3177L53.3069 66.7427L50.5319 66.2728L56.1519 46.4058L42.8589 53.8828L52.9648 31.0938H46.3359Z" fill="#F4F4F4"/>
</svg>
