<svg width="47" height="48" viewBox="0 0 47 48" fill="none" xmlns="http://www.w3.org/2000/svg">
<path d="M23.2646 0C17.0554 0.114093 11.1391 2.66078 6.78833 7.09222C2.43756 11.5237 0 17.4858 0 23.696C0 29.9062 2.43756 35.8683 6.78833 40.2998C11.1391 44.7312 17.0554 47.2779 23.2646 47.392C29.4738 47.2779 35.3901 44.7312 39.7408 40.2998C44.0916 35.8683 46.5292 29.9062 46.5292 23.696C46.5292 17.4858 44.0916 11.5237 39.7408 7.09222C35.3901 2.66078 29.4738 0.114093 23.2646 0ZM38.6496 39.085C34.5682 43.1664 29.0326 45.4593 23.2606 45.4593C17.4886 45.4593 11.953 43.1664 7.87159 39.085C3.79017 35.0036 1.49726 29.468 1.49726 23.696C1.49726 17.924 3.79017 12.3884 7.87159 8.307C11.953 4.22558 17.4886 1.93267 23.2606 1.93267C29.0326 1.93267 34.5682 4.22558 38.6496 8.307C42.731 12.3884 45.0239 17.924 45.0239 23.696C45.0239 29.468 42.731 35.0036 38.6496 39.085Z" fill="#131414"/>
<path d="M36.2167 18.232L36.1387 17.615C36.0132 16.6163 35.5273 15.6978 34.7723 15.0322C34.0174 14.3665 33.0453 13.9995 32.0387 14H14.5157C13.5092 13.9995 12.5371 14.3665 11.7821 15.0322C11.0271 15.6978 10.5412 16.6163 10.4157 17.615L10.3377 18.232C9.88742 21.8116 9.88742 25.4334 10.3377 29.013L10.4157 29.63C10.5414 30.6286 11.0274 31.5469 11.7823 32.2126C12.5373 32.8782 13.5092 33.2453 14.5157 33.245H32.0407C33.0472 33.2453 34.0192 32.8782 34.7741 32.2126C35.529 31.5469 36.015 30.6286 36.1407 29.63L36.2187 29.013C36.669 25.4334 36.669 21.8116 36.2187 18.232M19.9187 27.803V19.446L28.0957 23.627L19.9187 27.803Z" fill="#131414"/>
</svg>
